<svg width="47px" height="29px" viewBox="0 0 47 29" version="1.1" xmlns="http://www.w3.org/2000/svg"
     xmlns:xlink="http://www.w3.org/1999/xlink">
    <g id="COVID-19" stroke="none" stroke-width="1" fill="none" fill-rule="evenodd">
        <g id="/////-LOGO-/////" transform="translate(-326.000000, -645.000000)" fill="#000000" fill-rule="nonzero">
            <g id="2" transform="translate(227.000000, 537.000000)">
                <g id="1-white">
                    <g id="SIGLE" transform="translate(99.000000, 108.000000)">
                        <path
                            d="M3.17355372,29 C3.90082645,29 4.49586777,28.826 5.02479339,28.478 L22.5454545,16.82 C23.2727273,16.298 24,15.602 24,14.5 C24,13.398 23.2727273,12.702 22.5454545,12.18 L5.02479339,0.522 C4.49586777,0.174 3.90082645,0 3.17355372,0 C1.45454545,0 0,1.276 0,2.784 C0,3.48 0.396694215,4.466 1.32231405,5.046 L15.9338843,14.5 L1.32231405,23.954 C0.396694215,24.534 0,25.52 0,26.216 C0,27.724 1.45454545,29 3.17355372,29 Z"
                            id="&gt;"></path>
                        <path
                            d="M26.1735537,29 C26.9008264,29 27.4958678,28.826 28.0247934,28.478 L45.5454545,16.82 C46.2727273,16.298 47,15.602 47,14.5 C47,13.398 46.2727273,12.702 45.5454545,12.18 L28.0247934,0.522 C27.4958678,0.174 26.9008264,0 26.1735537,0 C24.4545455,0 23,1.276 23,2.784 C23,3.48 23.3966942,4.466 24.322314,5.046 L38.9338843,14.5 L24.322314,23.954 C23.3966942,24.534 23,25.52 23,26.216 C23,27.724 24.4545455,29 26.1735537,29 Z"
                            id="&gt;-copy"
                            transform="translate(35.000000, 14.500000) scale(-1, 1) translate(-35.000000, -14.500000) "></path>
                    </g>
                </g>
            </g>
        </g>
    </g>
</svg>
