<svg width="433px" height="145px" viewBox="0 0 433 145" version="1.1" xmlns="http://www.w3.org/2000/svg"
     xmlns:xlink="http://www.w3.org/1999/xlink">
    <g id="COVID-19" stroke="none" stroke-width="1" fill="none" fill-rule="evenodd">
        <g id="/////-LOGO-/////" transform="translate(-642.000000, -587.000000)" fill="#000000">
            <g id="2-copy" transform="translate(227.000000, 537.000000)">
                <g id="2-white" transform="translate(275.000000, 0.000000)">
                    <g id="logo/covreen" transform="translate(140.000000, 50.000000)">
                        <g>
                            <g id="TEXT" transform="translate(0.000000, 56.826773)">
                                <path
                                    d="M42.089546,36.1538329 C39.1026223,34.7271346 36.0713471,34.0137854 32.9974944,34.0137854 C29.1525176,34.0137854 25.6351503,34.9363836 22.4418443,36.7780134 C19.2485384,38.6214266 16.7341057,41.162733 14.9020943,44.4019327 C13.0683088,47.6429157 12.1523031,51.1942057 12.1523031,55.0575859 C12.1523031,58.9227495 13.0683088,62.4740394 14.9020943,65.7132391 C16.7341057,68.9542222 19.2485384,71.5092011 22.4418443,73.3817427 C25.6351503,75.2542842 29.1525176,76.190555 32.9974944,76.190555 C35.9536678,76.190555 38.9252164,75.5372461 41.9121401,74.2288448 C44.8972898,72.9222269 47.5447769,71.1079422 49.8510534,68.7895574 L56.8585859,76.6363983 C53.6055533,79.96655 49.8203031,82.5964306 45.5046093,84.5278234 C41.1871414,86.4604052 36.811721,87.4258044 32.3765739,87.4258044 C26.4027264,87.4258044 20.9338943,85.9991061 15.9665296,83.1457094 C10.9991648,80.2923127 7.09623536,76.4134766 4.25774122,71.5092011 C1.41924707,66.6049256 0,61.181094 0,55.2359232 C0,49.2925357 1.44822337,43.8823767 4.34644416,39.0072296 C7.2428909,34.1338658 11.1901718,30.2990196 16.1882869,27.5044742 C21.184628,24.7111178 26.7285619,23.3135478 32.8200886,23.3135478 C37.2552357,23.3135478 41.6016798,24.2052343 45.859421,25.9886072 C50.1171623,27.7719802 53.7539829,30.2395738 56.7698829,33.3896049 L49.8510534,42.1281322 C47.6624562,39.5725588 45.0746957,37.5805312 42.089546,36.1538329"
                                    id="Fill-1"></path>
                                <path
                                    d="M82.2876336,36.8225977 C79.0624132,38.6951393 76.5120207,41.2519016 74.6364563,44.4911013 C72.7597192,47.7320844 71.8222301,51.3125027 71.8222301,55.2359232 C71.8222301,59.1593436 72.7743767,62.7564068 74.6804286,66.0253294 C76.5847216,69.2954408 79.1357003,71.8813316 82.3316059,73.7830016 C85.5263389,75.6858605 89.0001492,76.6363983 92.7536234,76.6363983 C96.4467089,76.6363983 99.876547,75.6858605 103.042551,73.7830016 C106.208556,71.8813316 108.714976,69.2954408 110.562398,66.0253294 C112.408648,62.7564068 113.332066,59.1593436 113.332066,55.2359232 C113.332066,51.3125027 112.408648,47.7320844 110.562398,44.4911013 C108.714976,41.2519016 106.208556,38.6951393 103.042551,36.8225977 C99.876547,34.9500562 96.4467089,34.0137854 92.7536234,34.0137854 C89.0001492,34.0137854 85.5116814,34.9500562 82.2876336,36.8225977 M109.24323,27.5044742 C114.255484,30.2990196 118.197745,34.1338658 121.071188,39.0072296 C123.943457,43.8823767 125.380471,49.2925357 125.380471,55.2359232 C125.380471,61.181094 123.943457,66.6049256 121.071188,71.5092011 C118.197745,76.4134766 114.255484,80.2923127 109.24323,83.1457094 C104.229803,85.9991061 98.6740516,87.4258044 92.5771479,87.4258044 C86.4784854,87.4258044 80.9244928,85.9991061 75.9116525,83.1457094 C70.8988122,80.2923127 66.9553778,76.4134766 64.0831083,71.5092011 C61.2102524,66.6049256 59.7744108,61.181094 59.7744108,55.2359232 C59.7744108,49.2925357 61.2102524,43.8823767 64.0831083,39.0072296 C66.9553778,34.1338658 70.8988122,30.2990196 75.9116525,27.5044742 C80.9244928,24.7111178 86.4784854,23.3135478 92.5771479,23.3135478 C98.6740516,23.3135478 104.229803,24.7111178 109.24323,27.5044742"
                                    id="Fill-3"></path>
                                <polygon id="Fill-5"
                                         points="119.548822 0 132.25686 0 159.956159 72.8064461 187.556034 0 199.734007 0 165.780407 85.9687077 153.513599 85.9687077"></polygon>
                                <path
                                    d="M210.176212,56.9683194 L224.207695,56.9683194 C228.70665,56.9683194 232.141106,55.9837383 234.509289,54.0145762 C236.87688,52.045414 238.061563,49.1227 238.061563,45.2428538 C238.061563,41.4250661 236.87688,38.5608302 234.509289,36.6501462 C232.141106,34.7412523 228.70665,33.7859103 224.207695,33.7859103 L210.176212,33.7859103 L210.176212,56.9683194 Z M237.173495,85.9687077 L226.427866,67.4406819 C225.953045,67.5009502 225.21358,67.5301892 224.207695,67.5301892 L210.176212,67.5301892 L210.176212,85.9687077 L198.276094,85.9687077 L198.276094,23.3135478 L224.207695,23.3135478 C232.258924,23.3135478 238.475403,25.1932026 242.857133,28.9525122 C247.238271,32.7118218 249.42884,38.0231892 249.42884,44.8848243 C249.42884,49.7784907 248.376775,53.956098 246.276197,57.4158563 C244.173843,60.8774047 241.110006,63.4731184 237.084688,65.2029976 L250.760943,85.9687077 L237.173495,85.9687077 Z"
                                    id="Fill-7"></path>
                                <polygon id="Fill-9"
                                         points="260.96633 23.3135478 306.552577 23.3135478 306.552577 33.7859103 272.874004 33.7859103 272.874004 49.2706855 297.163288 49.2706855 297.163288 59.7430479 272.874004 59.7430479 272.874004 75.4963453 307.619529 75.4963453 307.619529 85.9687077 260.96633 85.9687077"></polygon>
                                <polygon id="Fill-11"
                                         points="319.282828 23.3135478 364.869076 23.3135478 364.869076 33.7859103 331.190502 33.7859103 331.190502 49.2706855 355.479786 49.2706855 355.479786 59.7430479 331.190502 59.7430479 331.190502 75.4963453 365.936027 75.4963453 365.936027 85.9687077 319.282828 85.9687077"></polygon>
                                <polygon id="Fill-13"
                                         points="421.652695 23.3135478 433 23.3135478 433 85.9687077 421.914556 85.9687077 390.491249 42.8261548 390.491249 85.9687077 379.057239 85.9687077 379.057239 23.3135478 390.142683 23.3135478 421.652695 66.5456081"></polygon>
                            </g>
                            <g id="SIGLE" transform="translate(125.380471, 0.000000)" fill-rule="nonzero">
                                <path
                                    d="M4.6267635,42.2558055 C5.68706347,42.2558055 6.55458163,42.0022706 7.32570888,41.495201 L32.8692991,24.5083672 C33.929599,23.7477627 34.989899,22.7336233 34.989899,21.1279027 C34.989899,19.5221821 33.929599,18.5080428 32.8692991,17.7474383 L7.32570888,0.760604499 C6.55458163,0.253534833 5.68706347,0 4.6267635,0 C2.12059994,0 0,1.85925544 0,4.05655733 C0,5.07069666 0.578345438,6.50739404 1.92781813,7.35251015 L23.2302084,21.1279027 L1.92781813,34.9032953 C0.578345438,35.7484114 0,37.1851088 0,38.1992482 C0,40.39655 2.12059994,42.2558055 4.6267635,42.2558055 Z"
                                    id="&gt;"></path>
                                <path
                                    d="M38.15875,42.2558055 C39.21905,42.2558055 40.0865682,42.0022706 40.8576954,41.495201 L66.4012856,24.5083672 C67.4615856,23.7477627 68.5218855,22.7336233 68.5218855,21.1279027 C68.5218855,19.5221821 67.4615856,18.5080428 66.4012856,17.7474383 L40.8576954,0.760604499 C40.0865682,0.253534833 39.21905,0 38.15875,0 C35.6525865,0 33.5319865,1.85925544 33.5319865,4.05655733 C33.5319865,5.07069666 34.110332,6.50739404 35.4598047,7.35251015 L56.762195,21.1279027 L35.4598047,34.9032953 C34.110332,35.7484114 33.5319865,37.1851088 33.5319865,38.1992482 C33.5319865,40.39655 35.6525865,42.2558055 38.15875,42.2558055 Z"
                                    id="&gt;-copy"
                                    transform="translate(51.026936, 21.127903) scale(-1, 1) translate(-51.026936, -21.127903) "></path>
                            </g>
                        </g>
                    </g>
                </g>
            </g>
        </g>
    </g>
</svg>
