<?xml version="1.0" encoding="iso-8859-1"?>
<svg version="1.1" id="Capa_1" xmlns="http://www.w3.org/2000/svg" xmlns:xlink="http://www.w3.org/1999/xlink" x="0px" y="0px"
	 viewBox="0 0 512 512" style="enable-background:new 0 0 512 512;" xml:space="preserve">
<path style="fill:#F44336;" d="M53.333,0h405.333C488.122,0,512,23.878,512,53.333v405.333C512,488.122,488.122,512,458.667,512
	H53.333C23.878,512,0,488.122,0,458.667V53.333C0,23.878,23.878,0,53.333,0z"/>
<path style="fill:#FAFAFA;" d="M306.475,271.104c-8.155-5.624-15.989-11.7-23.467-18.197c1.792-0.469,3.605-0.747,5.376-1.344
	c20.302-6.841,36.837-21.83,45.632-41.365c9.501-21.332,9.694-45.656,0.533-67.136c-5.915-14.207-15.278-26.716-27.243-36.395
	h34.027c5.891,0,10.667-4.776,10.667-10.667c0-5.891-4.776-10.667-10.667-10.667H256c-0.585,0.063-1.163,0.178-1.728,0.341
	c-10.415-0.607-20.849,0.784-30.741,4.096c-20.31,6.836-36.854,21.826-45.653,41.365c-9.501,21.332-9.694,45.656-0.533,67.136
	c13.72,33.265,45.404,55.626,81.344,57.408c2.537,4.866,5.918,9.243,9.984,12.928c-37.867,5.227-119.339,23.381-119.339,83.392
	c0,27.904,13.845,74.667,106.667,74.667c68.779,0,106.667-30.315,106.667-85.333C362.667,311.467,331.52,289.088,306.475,271.104z
	 M197.099,190.208c-6.914-16.049-6.837-34.251,0.213-50.24c6.371-14.179,18.36-25.064,33.088-30.037
	c6.393-2.183,13.106-3.286,19.861-3.264c28.496,0.567,53.917,18.051,64.64,44.459c6.914,16.049,6.837,34.251-0.213,50.24
	c-6.371,14.179-18.36,25.064-33.088,30.037C247.006,241.734,210.268,223.824,197.099,190.208z M256,405.333
	c-56.619,0-85.333-17.941-85.333-53.333c0-55.573,116.779-64,117.952-64c1.243-0.067,2.464-0.356,3.605-0.853l1.792,1.301
	c21.099,15.104,47.317,33.963,47.317,52.885C341.333,383.787,312.619,405.333,256,405.333z"/>
<g>
</g>
</svg>
