<svg width="166" height="20" viewBox="0 0 166 22" xmlns="http://www.w3.org/2000/svg"><g fill="none"><path d="M83.717 11.616c-.007.208-.02.416-.037.623-.016.19-.037.378-.064.566a7.38 7.38 0 01-.09.51 5.71 5.71 0 01-.122.462 4.473 4.473 0 01-.157.425c-.057.133-.12.262-.192.388a3.52 3.52 0 01-.227.35 3.791 3.791 0 01-.555.623 3.27 3.27 0 01-1.104.642 3.48 3.48 0 01-.34.107 4.87 4.87 0 01-1.217.148 5.319 5.319 0 01-.757-.054 4.434 4.434 0 01-1.108-.318 3.26 3.26 0 01-1.098-.815 3.801 3.801 0 01-.263-.332 3.908 3.908 0 01-.42-.74 4.473 4.473 0 01-.156-.424 5.247 5.247 0 01-.122-.463 7.38 7.38 0 01-.09-.509 9.862 9.862 0 01-.064-.566 12.96 12.96 0 01-.038-.623 16.65 16.65 0 01-.01-.679c-.001-.236.002-.461.01-.678a11.5 11.5 0 01.102-1.18c.024-.169.054-.337.09-.503.034-.154.074-.306.122-.456a4.44 4.44 0 01.157-.42 3.91 3.91 0 01.973-1.356 3.287 3.287 0 011.389-.727 4.987 4.987 0 01.749-.12 5.786 5.786 0 011.811.12 3.309 3.309 0 01.72.27 3.26 3.26 0 01.955.747c.094.105.182.216.264.332a3.552 3.552 0 01.419.734c.06.137.112.277.157.42a5.1 5.1 0 01.121.456c.035.158.065.326.091.503a11.504 11.504 0 01.101 1.181c.008.216.012.441.011.677.001.236-.003.462-.01.68zM86.403 0h-2.42v3.832l-.022-.018a5.276 5.276 0 00-.676-.43 7.031 7.031 0 00-.912-.407 6.683 6.683 0 00-.946-.264 7.627 7.627 0 00-1.293-.173 9.511 9.511 0 00-1.572.051c-.112.014-.22.03-.326.047a6.712 6.712 0 00-2.307.745 5.218 5.218 0 00-.733.474 5.611 5.611 0 00-.661.601 6.487 6.487 0 00-.59.73c-.185.264-.358.55-.519.856a7.029 7.029 0 00-.425.997c-.122.357-.224.74-.307 1.147-.083.408-.147.84-.191 1.299a16.91 16.91 0 00-.074 1.45c.005.509.03.992.074 1.45.044.46.108.893.19 1.301.084.409.186.792.308 1.15.122.359.264.692.425 1 .161.308.334.595.519.861s.381.51.59.733c.204.219.425.421.661.605.23.18.476.34.733.478a6.967 6.967 0 001.419.572 6.588 6.588 0 001.5.233 10.943 10.943 0 001.52 0 6.792 6.792 0 001.5-.234 6.661 6.661 0 001.903-.87c.08-.054.157-.11.232-.169h.001v1.143h3.217V0h-.818zm54.6 13.302c0 .578-.056 1.065-.17 1.462-.114.396-.288.714-.524.954-.42.405-.872.665-1.356.78a6.46 6.46 0 01-1.64.154c-1.004-.004-1.745-.206-2.222-.604-.477-.399-.713-.97-.71-1.715.002-.746.244-1.323.726-1.731.482-.408 1.197-.615 2.144-.62h3.752v1.32zm3.21 5.888V8.284c-.001-1.853-.55-3.249-1.65-4.187-1.098-.939-2.743-1.41-4.934-1.411-1.303-.015-2.4.151-3.293.498-.893.347-1.706.963-2.44 1.848l2.108 2.028c.422-.573.894-.981 1.418-1.224.524-.243 1.218-.361 2.081-.354 1.236-.002 2.13.25 2.684.756.553.506.825 1.274.816 2.303v1.16h-4.225c-1.829.025-3.204.465-4.126 1.322-.923.856-1.384 1.981-1.386 3.374a5.84 5.84 0 00.323 1.948c.214.6.526 1.12.936 1.56a4.483 4.483 0 001.763 1.112c.695.245 1.535.367 2.521.366.974.005 1.786-.125 2.436-.39.65-.264 1.257-.691 1.82-1.281v1.478h3.147zm5.945-16.314h-3.262V19.19h3.262V2.876zm15.804 16.314V8.765c.01-.918-.104-1.762-.34-2.53a5.05 5.05 0 00-1.253-2.07 4.875 4.875 0 00-1.697-1.09c-.66-.256-1.397-.386-2.214-.389-.806 0-1.573.153-2.3.458a5.414 5.414 0 00-1.926 1.374v-1.64h-3.124V19.19h3.187V9.248c.025-1.25.35-2.17.974-2.76.624-.59 1.395-.883 2.313-.878.913-.007 1.669.281 2.266.865.596.584.905 1.509.927 2.773v9.942h3.187zM36.323 9.7H32.11c.011-.483.045-.886.1-1.208a4.37 4.37 0 01.319-1.015 3.296 3.296 0 011.5-1.644c.452-.287 1.174-.473 1.987-.473.72 0 1.37.146 1.822.38a3.313 3.313 0 011.669 1.738c.157.354.269.692.334 1.014.065.322.104.725.117 1.208h-3.634zm6.887.835c-.015-2.355-.621-4.243-1.82-5.663-.815-.966-1.863-1.612-3.143-1.938-.635-.192-1.41-.305-2.25-.305-1.124 0-2.137.203-2.847.527-.93.362-1.73.934-2.4 1.715-1.233 1.44-1.864 3.49-1.89 6.146.05 3.066.762 5.237 2.136 6.512a6.698 6.698 0 002.538 1.489c.612.251 1.695.419 2.929.419 1.067 0 2.02-.125 2.655-.322a6.263 6.263 0 001.092-.376c.934-.427 1.805-1.059 2.614-1.896L40.73 14.88c-.558.577-1.134 1.002-1.727 1.272a3.542 3.542 0 01-.194.082c-.55.228-1.312.37-2.155.37-.67 0-1.288-.09-1.79-.241a3.46 3.46 0 01-1.68-1.044c-.71-.808-1.069-1.92-1.075-3.337H43.21v-1.446z" fill="#066DB6"/><path d="M66.669 9.283l5.611-6.404h-3.953l-6.282 7.53V0h-3.248v19.19h3.248V14.4l2.392-2.736 4.527 7.526h4.018l-6.313-9.907zM25.752 4.35c-.948-1.081-2.315-1.636-4.102-1.664-.792 0-1.539.153-2.24.458a5.518 5.518 0 00-1.886 1.374V0h-3.207v19.19h3.207V9.183c.023-1.219.34-2.12.949-2.704.61-.583 1.374-.873 2.295-.869.92-.006 1.68.28 2.28.857.6.578.911 1.483.933 2.716V19.19h3.206V8.668c-.008-1.798-.486-3.237-1.435-4.318zm28.153 11.693c-.44.237-.948.354-1.527.35h-.97a3.458 3.458 0 01-1.6-.374 3.401 3.401 0 01-1.22-1.078c-.326-.443-.558-.986-.697-1.627-.139-.64-.206-1.433-.203-2.377-.003-.942.064-1.73.203-2.361.139-.632.371-1.168.698-1.61a3.4 3.4 0 011.218-1.078 3.455 3.455 0 011.602-.375h.969c.579-.004 1.088.113 1.527.35.444.24.899.64 1.365 1.2l2.1-2.195c-.707-.815-1.46-1.402-2.258-1.76-.792-.358-1.704-.534-2.734-.528h-.97a6.729 6.729 0 00-3.276.803c-1.025.546-1.859 1.433-2.503 2.661-.644 1.228-.977 2.859-.997 4.893.02 2.035.353 3.668.997 4.901.644 1.233 1.478 2.125 2.503 2.677a6.684 6.684 0 003.277.812h.969c1.03.004 1.942-.178 2.734-.544.798-.369 1.55-.96 2.258-1.777l-2.1-2.162c-.466.56-.921.959-1.365 1.199zm-44.632.056c-.44.237-.948.354-1.527.35h-.97a3.458 3.458 0 01-1.6-.375 3.401 3.401 0 01-1.22-1.077c-.326-.444-.558-.986-.697-1.627-.139-.64-.206-1.433-.203-2.377-.003-.942.064-1.73.203-2.361.139-.632.371-1.169.698-1.61a3.4 3.4 0 011.218-1.078 3.455 3.455 0 011.602-.376h.969c.579-.003 1.088.114 1.527.352.444.24.899.64 1.365 1.198l2.1-2.194c-.707-.815-1.46-1.402-2.258-1.76-.792-.358-1.704-.534-2.734-.529h-.97A6.729 6.729 0 003.5 3.44C2.475 3.985 1.64 4.872.997 6.1.353 7.328.02 8.96 0 10.993c.02 2.034.353 3.668.997 4.901.644 1.233 1.478 2.125 2.503 2.677a6.684 6.684 0 003.277.812h.969c1.03.003 1.942-.178 2.734-.544.798-.369 1.55-.961 2.258-1.777l-2.1-2.162c-.466.559-.921.958-1.365 1.199zm119.803-9.865a5.426 5.426 0 00-1.31-2.07 4.9 4.9 0 00-1.754-1.088 6.578 6.578 0 00-2.276-.39c-1.052-.001-1.99.194-2.813.586-.823.393-1.555.99-2.196 1.792-.505-.788-1.139-1.381-1.9-1.78-.761-.398-1.64-.597-2.634-.598a5.972 5.972 0 00-2.328.47 5.47 5.47 0 00-.984.538l-4.087 4.084V19.19h3.208V9.248c.026-1.25.353-2.17.98-2.76.63-.59 1.405-.883 2.329-.878.92-.007 1.68.281 2.28.865.601.584.912 1.509.934 2.773v9.942h3.208V9.087c.03-1.173.365-2.046 1.005-2.62.64-.573 1.408-.859 2.304-.857.92-.007 1.68.281 2.28.865.602.584.913 1.509.934 2.773v9.942h3.209V8.765c.006-.918-.124-1.762-.39-2.53zm-24.36 3.62l-3.245 3.242c-.02.147-.042.293-.067.44-.136.786-.437 1.435-.902 1.947a2.956 2.956 0 01-1.017.696 3.33 3.33 0 01-1.273.238h-2.663a3.193 3.193 0 01-1.273-.254 3.117 3.117 0 01-1.017-.712c-.465-.512-.766-1.162-.902-1.948a13.524 13.524 0 01-.182-2.527 13.51 13.51 0 01.182-2.527c.136-.786.437-1.435.902-1.947a2.957 2.957 0 011.017-.696 3.33 3.33 0 011.273-.238h2.663c.465.002.89.087 1.273.254l.006.003 2.223-2.221c-.24-.15-.49-.286-.748-.406-.77-.357-1.689-.542-2.754-.554h-2.663c-1.065.012-1.983.197-2.754.554-.771.358-1.41.816-1.918 1.374a6.358 6.358 0 00-1.483 2.78c-.262 1.053-.386 2.261-.37 3.624-.016 1.38.108 2.597.37 3.654a6.35 6.35 0 001.483 2.783c.508.558 1.147 1.016 1.918 1.374.77.357 1.689.542 2.754.554h2.663c1.065-.012 1.983-.197 2.754-.554.771-.358 1.41-.816 1.918-1.374a6.358 6.358 0 001.483-2.78c.262-1.053.386-2.261.37-3.624.005-.399-.003-.784-.021-1.155z" fill="#066DB6"/><path fill="#00CA49" d="M105.333 2.462l-8.28 8.272-2.26-2.257-2.092 2.089 2.26 2.257 2.085 2.084 12.458-12.445z"/></g></svg>
