<svg width="123px" height="36px" viewBox="0 0 123 36" version="1.1" xmlns="http://www.w3.org/2000/svg"
     xmlns:xlink="http://www.w3.org/1999/xlink">
    <g id="COVID-19" stroke="none" stroke-width="1" fill="none" fill-rule="evenodd">
        <g id="000---home-(-White-)-(-Desktop-)" transform="translate(-879.000000, -1869.000000)" fill="#FF0000">
            <g id="PARTNERS" transform="translate(185.000000, 1488.000000)">
                <g id="CONTENT">
                    <g id="PARTNERS-CASE" transform="translate(0.000000, 299.000000)">
                        <g id="CASE-4" transform="translate(660.000000, 0.000000)">
                            <g id="logo/EPFL" transform="translate(34.000000, 82.000000)">
                                <g>
                                    <polygon id="Fill-1"
                                             points="0 0.0051239975 0 14.405124 7.68245902 14.405124 7.68245902 6.53845733 25.7695082 6.53845733 25.7695082 0.0051239975"></polygon>
                                    <polygon id="Fill-2"
                                             points="0 20.938524 0 35.338524 25.7695082 35.338524 25.7695082 28.8051907 7.68245902 28.8051907 7.68245902 20.938524"></polygon>
                                    <polygon id="Fill-3"
                                             points="7.68245902 20.938524 24.2236066 20.938524 24.2236066 14.4051907 7.68245902 14.4051907"></polygon>
                                    <path
                                        d="M52.4262295,12.4918573 C52.0323607,13.014524 51.5087705,13.4278573 50.9072131,13.6918573 C50.2075246,13.988524 49.4661639,14.1798573 48.7093443,14.258524 C47.8483443,14.3591907 46.9819672,14.408524 46.114918,14.4051907 L40.0388525,14.4051907 L40.0388525,6.538524 L46.1216393,6.538524 C46.9886885,6.53519066 47.8550656,6.584524 48.7160656,6.68519066 C49.4742295,6.762524 50.2155902,6.956524 50.9139344,7.258524 C51.5141475,7.51919066 52.0357213,7.92985733 52.4262295,8.45185733 C52.8295082,9.040524 53.0318197,9.74119066 53.0042623,10.4518573 C53.0405574,11.1758573 52.8375738,11.892524 52.4262295,12.4918573 M57.8032787,3.25185733 C56.7103934,2.21119066 55.4098197,1.40919066 53.9855738,0.898523997 C52.152,0.258523997 50.2155902,-0.0441426692 48.272459,0.00519066416 L32.3563934,0.00519066416 L32.3563934,35.338524 L40.0388525,35.338524 L40.0388525,20.938524 L48.272459,20.938524 C50.2068525,20.9851907 52.1331803,20.682524 53.9586885,20.0451907 C55.3930164,19.5371907 56.703,18.7358573 57.8032787,17.6918573 C58.7597213,16.7531907 59.4923443,15.614524 59.947377,14.358524 C60.8433279,11.8531907 60.8433279,9.11719066 59.947377,6.61185733 C59.4936885,5.34785733 58.7610656,4.19985733 57.8032787,3.25185733"
                                        id="Fill-4"></path>
                                    <polygon id="Fill-6"
                                             points="104.496028 28.805324 104.496028 0.0053239975 96.8135689 0.0053239975 96.8135689 35.3386573 122.583077 35.3386573 122.583077 28.805324"></polygon>
                                    <polygon id="Fill-9"
                                             points="65.4789492 14.4052573 73.1614082 14.4052573 73.1614082 6.53859066 91.2484574 6.53859066 91.2484574 0.00525733083 65.4789492 0.00525733083"></polygon>
                                    <polygon id="Fill-11"
                                             points="65.4790164 35.338524 73.1614754 35.338524 73.1614754 20.938524 65.4790164 20.938524"></polygon>
                                    <polygon id="Fill-13"
                                             points="73.1614754 20.938524 89.702623 20.938524 89.702623 14.4051907 73.1614754 14.4051907"></polygon>
                                </g>
                            </g>
                        </g>
                    </g>
                </g>
            </g>
        </g>
    </g>
</svg>
