<?xml version="1.0" encoding="UTF-8"?>
<svg width="175px" height="39px" viewBox="0 0 175 39" version="1.1" xmlns="http://www.w3.org/2000/svg" xmlns:xlink="http://www.w3.org/1999/xlink">
    <!-- Generator: Sketch 63.1 (92452) - https://sketch.com -->
    <title>lumiataLogoRGB</title>
    <desc>Created with Sketch.</desc>
    <defs>
        <rect id="path-1" x="0" y="0" width="1280" height="800"></rect>
    </defs>
    <g id="EarthdayMobileCompsSet04" stroke="none" stroke-width="1" fill="none" fill-rule="evenodd">
        <g id="XXDTHome01A" transform="translate(-80.000000, -30.000000)">
            <g id="VIN">
                <mask id="mask-2" fill="white">
                    <use xlink:href="#path-1"></use>
                </mask>
                <use id="Rectangle" fill="#D8D8D8" xlink:href="#path-1"></use>
            </g>
            <g id="navigation" fill="#FFFFFF">
                <rect id="Rectangle" x="0" y="0" width="1280" height="100"></rect>
            </g>
            <g id="lumiataLogoRGB" transform="translate(80.000000, 30.000000)" fill="#06B1F0" fill-rule="nonzero">
                <path d="M92.2995781,0.375283019 C90.4831224,0.375283019 89.0063291,1.84698113 89.0063291,3.65716981 C89.0063291,5.46735849 90.4831224,6.9390566 92.2995781,6.9390566 C94.1160338,6.9390566 95.592827,5.46735849 95.592827,3.65716981 C95.592827,1.84698113 94.1160338,0.375283019 92.2995781,0.375283019" id="Path"></path>
                <path d="M90.2320675,38.4113208 L94.3670886,38.4113208 C94.5590717,38.4113208 94.721519,38.2567925 94.721519,38.0581132 L94.721519,10.7581132 C94.721519,10.5667925 94.5664557,10.4049057 94.3670886,10.4049057 L90.2320675,10.4049057 C90.0400844,10.4049057 89.8776371,10.559434 89.8776371,10.7581132 L89.8776371,38.0581132 C89.8776371,38.249434 90.0400844,38.4113208 90.2320675,38.4113208" id="Path"></path>
                <path d="M122.765823,24.57 C122.765823,27.4250943 121.761603,29.8166038 119.775316,31.6709434 C117.936709,33.3928302 115.691983,34.2316981 112.908228,34.2390566 C110.117089,34.2316981 107.768987,33.3339623 105.93038,31.5679245 C104.054852,29.7650943 103.102321,27.3735849 103.102321,24.4669811 C103.102321,21.5603774 104.054852,19.1688679 105.93038,17.3660377 C107.813291,15.5632075 110.168776,14.6433962 112.93038,14.6433962 C115.53692,14.6433962 117.855485,15.5779245 119.827004,17.4175472 C121.805907,19.2645283 122.765823,21.6045283 122.765823,24.57 M122.647679,10.7581132 L122.647679,14.010566 C120.063291,11.5086792 116.555907,9.97811321 112.686709,9.97811321 C112.612869,9.97811321 112.546414,9.97811321 112.472574,9.97811321 C112.383966,9.97811321 112.302743,9.97811321 112.214135,9.97811321 C108.455696,9.97811321 105.03692,11.3320755 102.35654,13.9958491 C99.6835443,16.6596226 98.3248945,20.1549057 98.3248945,24.3639623 C98.3248945,24.3713208 98.3248945,24.3786792 98.3248945,24.3860377 C98.3248945,24.3933962 98.3248945,24.4007547 98.3248945,24.4081132 C98.3248945,24.4743396 98.3248945,24.5332075 98.3248945,24.599434 C98.3248945,24.6583019 98.3248945,24.7171698 98.3248945,24.7760377 C98.3248945,24.7833962 98.3248945,24.7833962 98.3248945,24.7907547 C98.4135021,28.8158491 99.7647679,32.1566038 102.35654,34.7320755 C104.490506,36.8586792 107.097046,38.1464151 109.969409,38.580566 C110.848101,38.7498113 111.756329,38.8381132 112.679325,38.8381132 C116.548523,38.8381132 120.055907,37.3001887 122.640295,34.7983019 L122.640295,38.0581132 C122.640295,38.249434 122.795359,38.4113208 122.994726,38.4113208 L127.122363,38.4113208 C127.314346,38.4113208 127.476793,38.2567925 127.476793,38.0581132 L127.476793,10.7581132 C127.476793,10.5667925 127.32173,10.4049057 127.122363,10.4049057 L122.994726,10.4049057 C122.810127,10.4122642 122.647679,10.5667925 122.647679,10.7581132" id="Shape"></path>
                <path d="M146.0327,10.4049057 L140.516878,10.4049057 L140.516878,1.45698113 C140.516878,1.26566038 140.361814,1.10377358 140.162447,1.10377358 L136.03481,1.10377358 C135.842827,1.10377358 135.687764,1.25830189 135.687764,1.45698113 L135.687764,10.4049057 L130.260549,10.4049057 C130.068565,10.4049057 129.906118,10.559434 129.906118,10.7581132 L129.906118,14.4667925 C129.906118,14.6581132 130.061181,14.82 130.260549,14.82 L135.687764,14.82 L135.687764,38.0654717 C135.687764,38.2567925 135.842827,38.4186792 136.03481,38.4186792 L140.162447,38.4186792 C140.35443,38.4186792 140.516878,38.2641509 140.516878,38.0654717 L140.516878,14.82 L146.0327,14.82 C146.224684,14.82 146.387131,14.6654717 146.387131,14.4667925 L146.387131,10.7581132 C146.379747,10.559434 146.224684,10.4049057 146.0327,10.4049057" id="Path"></path>
                <path d="M170.119198,24.57 C170.119198,27.4250943 169.114979,29.8166038 167.128692,31.6709434 C165.290084,33.3928302 163.045359,34.2316981 160.261603,34.2390566 C157.470464,34.2316981 155.122363,33.3339623 153.283755,31.5679245 C151.408228,29.7650943 150.455696,27.3735849 150.455696,24.4669811 C150.455696,21.5603774 151.408228,19.1688679 153.283755,17.3660377 C155.166667,15.5632075 157.522152,14.6433962 160.283755,14.6433962 C162.890295,14.6433962 165.208861,15.5779245 167.18038,17.4175472 C169.159283,19.2645283 170.119198,21.6045283 170.119198,24.57 M170.001055,10.7581132 L170.001055,14.010566 C167.416667,11.5086792 163.909283,9.97811321 160.040084,9.97811321 C159.966245,9.97811321 159.899789,9.97811321 159.825949,9.97811321 C159.737342,9.97811321 159.656118,9.97811321 159.567511,9.97811321 C155.809072,9.97811321 152.390295,11.3320755 149.709916,13.9958491 C147.03692,16.6596226 145.67827,20.1549057 145.67827,24.3639623 C145.67827,24.3713208 145.67827,24.3786792 145.67827,24.3860377 C145.67827,24.3933962 145.67827,24.4007547 145.67827,24.4081132 C145.67827,24.4743396 145.67827,24.5332075 145.67827,24.599434 C145.67827,24.6583019 145.67827,24.7171698 145.67827,24.7760377 C145.67827,24.7833962 145.67827,24.7833962 145.67827,24.7907547 C145.766878,28.8158491 147.118143,32.1566038 149.709916,34.7320755 C151.843882,36.8586792 154.450422,38.1464151 157.322785,38.580566 C158.201477,38.7498113 159.109705,38.8381132 160.0327,38.8381132 C163.901899,38.8381132 167.409283,37.3001887 169.993671,34.7983019 L169.993671,38.0581132 C169.993671,38.249434 170.148734,38.4113208 170.348101,38.4113208 L174.475738,38.4113208 C174.667722,38.4113208 174.830169,38.2567925 174.830169,38.0581132 L174.830169,10.7581132 C174.830169,10.5667925 174.675105,10.4049057 174.475738,10.4049057 L170.348101,10.4049057 C170.163502,10.4122642 170.001055,10.5667925 170.001055,10.7581132" id="Shape"></path>
                <path d="M74.2605485,9.97075472 C70.3027426,9.97075472 66.7436709,11.5675472 64.4324895,14.6507547 C61.8185654,11.0745283 58.2668776,9.97075472 55.6529536,9.97075472 C52.5369198,9.97075472 49.6202532,11.0818868 47.3386076,13.6058491 L47.3386076,10.7581132 C47.3386076,10.5667925 47.1835443,10.4049057 46.9841772,10.4049057 L42.9008439,10.4049057 C42.7088608,10.4049057 42.5464135,10.559434 42.5464135,10.7581132 L42.5464135,38.0581132 C42.5464135,38.249434 42.7014768,38.4113208 42.9008439,38.4113208 L47.0727848,38.4113208 C47.2647679,38.4113208 47.4198312,38.2567925 47.4198312,38.0581132 L47.4198312,25.1807547 C47.4198312,22.7009434 47.6413502,19.6692453 49.0221519,17.7707547 C50.2257384,16.1224528 52.285865,14.8420755 54.5748945,14.7684906 C57.2552743,14.6875472 58.7468354,15.4160377 60.0833333,17.1158491 C61.242616,18.5949057 61.6487342,20.5081132 61.6487342,22.8554717 L61.6487342,38.0507547 C61.6487342,38.2420755 61.8037975,38.4039623 62.0031646,38.4039623 L66.1160338,38.4039623 C66.3080169,38.4039623 66.4704641,38.249434 66.4704641,38.0507547 L66.4704641,22.9584906 C66.4704641,17.6750943 69.4609705,14.7684906 73.92827,14.7684906 C75.8702532,14.7684906 77.7236287,15.3939623 78.9050633,16.6228302 C80.285865,18.0577358 80.6107595,19.904717 80.6107595,22.9584906 L80.6107595,38.0507547 C80.6107595,38.2420755 80.7658228,38.4039623 80.9578059,38.4039623 L85.0706751,38.4039623 C85.2626582,38.4039623 85.4251055,38.249434 85.4251055,38.0507547 L85.4251055,22.9511321 C85.4251055,19.9709434 85.2552743,17.7266038 84.0590717,15.4601887 C82.3312236,12.1856604 78.8829114,9.97075472 74.2605485,9.97075472" id="Path"></path>
                <path d="M5.30907173,31.229434 L5.30907173,0.78 C5.30907173,0.588679245 5.15400844,0.426792453 4.95464135,0.426792453 L0.856540084,0.426792453 C0.664556962,0.426792453 0.502109705,0.581320755 0.502109705,0.78 L0.502109705,31.9873585 C0.502109705,34.0035849 0.834388186,35.7549057 1.86814346,36.7924528 C3.01265823,37.9330189 4.32700422,38.4407547 6.51265823,38.4407547 C8.17405063,38.4407547 9.65822785,38.2567925 10.3523207,38.0728302 C10.507384,38.0360377 10.6107595,37.8962264 10.6107595,37.7343396 C10.6107595,36.9469811 10.6255274,34.7835849 10.6329114,33.8490566 C10.6329114,33.6283019 10.4409283,33.4664151 10.2267932,33.5032075 C9.72468354,33.5915094 8.96413502,33.6650943 8.17405063,33.6650943 C6.70464135,33.6798113 5.30907173,33.5032075 5.30907173,31.229434" id="Path"></path>
                <path d="M33.1540084,25.2249057 C33.1466245,25.3132075 33.1466245,25.4015094 33.1392405,25.4898113 L33.1392405,25.5192453 C32.9915612,28.3007547 32.2900844,30.0962264 30.7246835,31.6856604 C29.9198312,32.5024528 28.5759494,33.2677358 27.3723629,33.7018868 C26.4272152,34.0256604 25.4156118,34.1949057 24.3892405,34.1949057 C23.9905063,34.1949057 23.5696203,34.1801887 23.1561181,34.1433962 C21.5685654,33.9667925 20.0474684,33.3045283 19.1170886,32.4509434 C17.5664557,31.0307547 17.1455696,29.1249057 17.1455696,26.1079245 L17.1455696,10.7581132 C17.1455696,10.5667925 16.9905063,10.4049057 16.7911392,10.4049057 L12.7004219,10.4049057 C12.5084388,10.4049057 12.3459916,10.559434 12.3459916,10.7581132 L12.3459916,26.0122642 C12.3459916,29.6988679 12.4936709,31.6267925 13.778481,34.0771698 C15.4767932,37.3149057 19.0727848,38.8381132 23.4293249,38.8381132 C23.5770042,38.8381132 23.7246835,38.8381132 23.8649789,38.8307547 L23.8649789,38.8307547 C28.1033755,38.8307547 31.3375527,37.2707547 33.3459916,34.8939623 L33.3459916,38.0654717 C33.3459916,38.2567925 33.5010549,38.4186792 33.693038,38.4186792 L37.7099156,38.4186792 C37.9018987,38.4186792 38.064346,38.2641509 38.064346,38.0654717 L38.064346,10.7581132 C38.064346,10.5667925 37.9092827,10.4049057 37.7099156,10.4049057 L33.5896624,10.4049057 C33.3976793,10.4049057 33.2352321,10.559434 33.2352321,10.7581132 C33.242616,12.7743396 33.242616,22.9732075 33.1540084,25.2249057" id="Path"></path>
            </g>
        </g>
    </g>
</svg>