<svg width="344" height="108" viewBox="0 0 344 108" fill="none" xmlns="http://www.w3.org/2000/svg">
    <path d="M37.8448 75.596C38.5542 75.428 39.3195 75.316 40.1408 75.26C40.9622 75.204 41.7742 75.176 42.5768 75.176C43.4355 75.176 44.3035 75.26 45.1808 75.428C46.0768 75.596 46.8888 75.904 47.6168 76.352C48.3448 76.8 48.9328 77.416 49.3808 78.2C49.8475 78.984 50.0808 79.9827 50.0808 81.196C50.0808 82.3907 49.8662 83.3987 49.4368 84.22C49.0075 85.0413 48.4382 85.7133 47.7288 86.236C47.0195 86.74 46.2075 87.104 45.2928 87.328C44.3782 87.552 43.4355 87.664 42.4648 87.664C42.3715 87.664 42.2128 87.664 41.9888 87.664C41.7835 87.664 41.5595 87.664 41.3168 87.664C41.0928 87.6453 40.8688 87.6267 40.6448 87.608C40.4208 87.5893 40.2622 87.5707 40.1688 87.552V95H37.8448V75.596ZM42.6328 77.192C42.1475 77.192 41.6808 77.2013 41.2328 77.22C40.7848 77.2387 40.4302 77.2853 40.1688 77.36V85.48C40.2622 85.5173 40.4115 85.5453 40.6168 85.564C40.8222 85.564 41.0368 85.5733 41.2608 85.592C41.4848 85.592 41.6995 85.592 41.9048 85.592C42.1102 85.592 42.2595 85.592 42.3528 85.592C42.9875 85.592 43.6128 85.536 44.2288 85.424C44.8635 85.2933 45.4328 85.0693 45.9368 84.752C46.4408 84.4347 46.8422 83.9867 47.1408 83.408C47.4582 82.8293 47.6168 82.092 47.6168 81.196C47.6168 80.4307 47.4675 79.796 47.1688 79.292C46.8888 78.7693 46.5062 78.3587 46.0208 78.06C45.5542 77.7427 45.0222 77.5187 44.4248 77.388C43.8275 77.2573 43.2302 77.192 42.6328 77.192ZM52.0531 82.036C52.7624 81.6067 53.5838 81.2893 54.5171 81.084C55.4691 80.8787 56.4584 80.776 57.4851 80.776C58.4558 80.776 59.2304 80.9067 59.8091 81.168C60.4064 81.4293 60.8544 81.7747 61.1531 82.204C61.4704 82.6147 61.6758 83.072 61.7691 83.576C61.8811 84.08 61.9371 84.584 61.9371 85.088C61.9371 86.208 61.9091 87.3 61.8531 88.364C61.7971 89.428 61.7691 90.436 61.7691 91.388C61.7691 92.0787 61.7971 92.732 61.8531 93.348C61.9091 93.964 62.0118 94.5333 62.1611 95.056H60.5091L59.9211 93.096H59.7811C59.6131 93.3573 59.3984 93.6187 59.1371 93.88C58.8944 94.1227 58.5958 94.3467 58.2411 94.552C57.8864 94.7387 57.4758 94.8973 57.0091 95.028C56.5424 95.1587 56.0104 95.224 55.4131 95.224C54.8158 95.224 54.2558 95.1307 53.7331 94.944C53.2291 94.7573 52.7904 94.496 52.4171 94.16C52.0438 93.8053 51.7451 93.3853 51.5211 92.9C51.3158 92.4147 51.2131 91.864 51.2131 91.248C51.2131 90.4267 51.3811 89.7453 51.7171 89.204C52.0531 88.644 52.5198 88.2053 53.1171 87.888C53.7331 87.552 54.4611 87.3187 55.3011 87.188C56.1598 87.0387 57.1024 86.964 58.1291 86.964C58.3904 86.964 58.6424 86.964 58.8851 86.964C59.1464 86.964 59.4078 86.9827 59.6691 87.02C59.7251 86.46 59.7531 85.956 59.7531 85.508C59.7531 84.4813 59.5478 83.7627 59.1371 83.352C58.7264 82.9413 57.9798 82.736 56.8971 82.736C56.5798 82.736 56.2344 82.764 55.8611 82.82C55.5064 82.8573 55.1331 82.9227 54.7411 83.016C54.3678 83.0907 54.0038 83.1933 53.6491 83.324C53.3131 83.436 53.0144 83.5667 52.7531 83.716L52.0531 82.036ZM56.0291 93.264C56.5518 93.264 57.0184 93.1987 57.4291 93.068C57.8398 92.9187 58.1944 92.7413 58.4931 92.536C58.7918 92.312 59.0344 92.0693 59.2211 91.808C59.4264 91.5467 59.5758 91.2947 59.6691 91.052V88.728C59.4078 88.7093 59.1371 88.7 58.8571 88.7C58.5958 88.6813 58.3344 88.672 58.0731 88.672C57.4944 88.672 56.9251 88.7093 56.3651 88.784C55.8238 88.84 55.3384 88.9613 54.9091 89.148C54.4984 89.316 54.1624 89.5587 53.9011 89.876C53.6584 90.1747 53.5371 90.5573 53.5371 91.024C53.5371 91.6773 53.7704 92.2187 54.2371 92.648C54.7038 93.0587 55.3011 93.264 56.0291 93.264ZM75.1557 95V87.02C75.1557 85.564 74.9411 84.472 74.5117 83.744C74.1011 82.9973 73.3357 82.624 72.2157 82.624C71.2264 82.624 70.4051 82.8947 69.7517 83.436C69.1171 83.9587 68.6691 84.6213 68.4077 85.424V95H66.1677V81H67.7357L68.1557 82.708H68.2677C68.7157 82.1107 69.3131 81.6253 70.0597 81.252C70.8251 80.86 71.7304 80.664 72.7757 80.664C73.5411 80.664 74.2131 80.7573 74.7917 80.944C75.3704 81.112 75.8464 81.42 76.2197 81.868C76.6117 82.316 76.9011 82.9227 77.0877 83.688C77.2931 84.4347 77.3957 85.3867 77.3957 86.544V95H75.1557ZM80.9762 85.9H87.7522V87.972H80.9762V85.9ZM91.7941 75.4H102.462V77.472H94.1181V83.884H101.762V85.956H94.1181V92.928H102.602V95H91.7941V75.4ZM108.598 81V88.98C108.598 89.708 108.635 90.352 108.71 90.912C108.803 91.4533 108.952 91.9107 109.158 92.284C109.363 92.6387 109.643 92.9093 109.998 93.096C110.352 93.2827 110.8 93.376 111.342 93.376C111.846 93.376 112.294 93.3013 112.686 93.152C113.078 92.984 113.423 92.76 113.722 92.48C114.039 92.2 114.31 91.8827 114.534 91.528C114.776 91.1547 114.972 90.7627 115.122 90.352V81H117.362V91.024C117.362 91.696 117.38 92.396 117.418 93.124C117.474 93.8333 117.558 94.4587 117.67 95H116.13L115.57 92.788H115.43C115 93.516 114.422 94.1227 113.694 94.608C112.966 95.0933 112.042 95.336 110.922 95.336C110.175 95.336 109.512 95.2427 108.934 95.056C108.374 94.888 107.898 94.58 107.506 94.132C107.132 93.684 106.843 93.0867 106.638 92.34C106.451 91.5747 106.358 90.6133 106.358 89.456V81H108.598ZM128.284 83.156C127.724 82.9693 127.192 82.876 126.688 82.876C125.885 82.876 125.25 83.1 124.784 83.548C124.317 83.9773 124.028 84.528 123.916 85.2V95H121.676V81H123.244L123.664 82.708H123.776C124.13 82.0733 124.55 81.588 125.036 81.252C125.54 80.8973 126.174 80.72 126.94 80.72C127.481 80.72 128.088 80.8133 128.76 81L128.284 83.156ZM130.407 88C130.407 85.6293 130.93 83.8187 131.975 82.568C133.039 81.2987 134.56 80.664 136.539 80.664C137.584 80.664 138.49 80.8413 139.255 81.196C140.039 81.532 140.683 82.0267 141.187 82.68C141.691 83.3147 142.064 84.0893 142.307 85.004C142.55 85.9 142.671 86.8987 142.671 88C142.671 90.3707 142.139 92.1907 141.075 93.46C140.03 94.7107 138.518 95.336 136.539 95.336C135.494 95.336 134.579 95.168 133.795 94.832C133.03 94.4773 132.395 93.9827 131.891 93.348C131.387 92.6947 131.014 91.92 130.771 91.024C130.528 90.1093 130.407 89.1013 130.407 88ZM132.731 88C132.731 88.7093 132.796 89.3907 132.927 90.044C133.076 90.6973 133.3 91.2667 133.599 91.752C133.898 92.2373 134.29 92.6293 134.775 92.928C135.26 93.2267 135.848 93.376 136.539 93.376C139.078 93.3947 140.347 91.6027 140.347 88C140.347 87.272 140.272 86.5813 140.123 85.928C139.992 85.2747 139.778 84.7053 139.479 84.22C139.18 83.7347 138.788 83.352 138.303 83.072C137.818 82.7733 137.23 82.624 136.539 82.624C134 82.6053 132.731 84.3973 132.731 88ZM146.203 81H147.743L148.163 82.68H148.275C148.704 82.0267 149.255 81.532 149.927 81.196C150.618 80.8413 151.402 80.664 152.279 80.664C154.146 80.664 155.536 81.2147 156.451 82.316C157.366 83.4173 157.823 85.2187 157.823 87.72C157.823 88.896 157.664 89.96 157.347 90.912C157.048 91.8453 156.619 92.6387 156.059 93.292C155.499 93.9453 154.818 94.4493 154.015 94.804C153.231 95.1587 152.354 95.336 151.383 95.336C150.692 95.336 150.142 95.2893 149.731 95.196C149.339 95.1213 148.91 94.9813 148.443 94.776V100.6H146.203V81ZM151.859 82.624C150.907 82.624 150.151 82.876 149.591 83.38C149.05 83.8653 148.667 84.612 148.443 85.62V92.564C148.779 92.8253 149.162 93.0307 149.591 93.18C150.02 93.3107 150.59 93.376 151.299 93.376C152.587 93.376 153.604 92.9 154.351 91.948C155.116 90.9773 155.499 89.5587 155.499 87.692C155.499 86.9267 155.434 86.236 155.303 85.62C155.172 84.9853 154.958 84.4533 154.659 84.024C154.379 83.576 154.006 83.2307 153.539 82.988C153.091 82.7453 152.531 82.624 151.859 82.624ZM171.571 93.88C171.011 94.328 170.302 94.6827 169.443 94.944C168.603 95.2053 167.707 95.336 166.755 95.336C165.691 95.336 164.767 95.168 163.983 94.832C163.199 94.4773 162.555 93.9827 162.051 93.348C161.547 92.6947 161.174 91.92 160.931 91.024C160.689 90.128 160.567 89.12 160.567 88C160.567 85.6107 161.099 83.7907 162.163 82.54C163.227 81.2893 164.749 80.664 166.727 80.664C167.362 80.664 167.997 80.7387 168.631 80.888C169.266 81.0187 169.835 81.28 170.339 81.672C170.843 82.064 171.254 82.624 171.571 83.352C171.889 84.0613 172.047 85.004 172.047 86.18C172.047 86.796 171.991 87.4773 171.879 88.224H162.891C162.891 89.0453 162.975 89.7733 163.143 90.408C163.311 91.0427 163.573 91.584 163.927 92.032C164.282 92.4613 164.739 92.7973 165.299 93.04C165.878 93.264 166.578 93.376 167.399 93.376C168.034 93.376 168.669 93.264 169.303 93.04C169.938 92.816 170.414 92.5547 170.731 92.256L171.571 93.88ZM166.755 82.624C165.654 82.624 164.767 82.9133 164.095 83.492C163.442 84.0707 163.05 85.06 162.919 86.46H169.863C169.863 85.0413 169.593 84.052 169.051 83.492C168.51 82.9133 167.745 82.624 166.755 82.624ZM175.346 82.036C176.055 81.6067 176.877 81.2893 177.81 81.084C178.762 80.8787 179.751 80.776 180.778 80.776C181.749 80.776 182.523 80.9067 183.102 81.168C183.699 81.4293 184.147 81.7747 184.446 82.204C184.763 82.6147 184.969 83.072 185.062 83.576C185.174 84.08 185.23 84.584 185.23 85.088C185.23 86.208 185.202 87.3 185.146 88.364C185.09 89.428 185.062 90.436 185.062 91.388C185.062 92.0787 185.09 92.732 185.146 93.348C185.202 93.964 185.305 94.5333 185.454 95.056H183.802L183.214 93.096H183.074C182.906 93.3573 182.691 93.6187 182.43 93.88C182.187 94.1227 181.889 94.3467 181.534 94.552C181.179 94.7387 180.769 94.8973 180.302 95.028C179.835 95.1587 179.303 95.224 178.706 95.224C178.109 95.224 177.549 95.1307 177.026 94.944C176.522 94.7573 176.083 94.496 175.71 94.16C175.337 93.8053 175.038 93.3853 174.814 92.9C174.609 92.4147 174.506 91.864 174.506 91.248C174.506 90.4267 174.674 89.7453 175.01 89.204C175.346 88.644 175.813 88.2053 176.41 87.888C177.026 87.552 177.754 87.3187 178.594 87.188C179.453 87.0387 180.395 86.964 181.422 86.964C181.683 86.964 181.935 86.964 182.178 86.964C182.439 86.964 182.701 86.9827 182.962 87.02C183.018 86.46 183.046 85.956 183.046 85.508C183.046 84.4813 182.841 83.7627 182.43 83.352C182.019 82.9413 181.273 82.736 180.19 82.736C179.873 82.736 179.527 82.764 179.154 82.82C178.799 82.8573 178.426 82.9227 178.034 83.016C177.661 83.0907 177.297 83.1933 176.942 83.324C176.606 83.436 176.307 83.5667 176.046 83.716L175.346 82.036ZM179.322 93.264C179.845 93.264 180.311 93.1987 180.722 93.068C181.133 92.9187 181.487 92.7413 181.786 92.536C182.085 92.312 182.327 92.0693 182.514 91.808C182.719 91.5467 182.869 91.2947 182.962 91.052V88.728C182.701 88.7093 182.43 88.7 182.15 88.7C181.889 88.6813 181.627 88.672 181.366 88.672C180.787 88.672 180.218 88.7093 179.658 88.784C179.117 88.84 178.631 88.9613 178.202 89.148C177.791 89.316 177.455 89.5587 177.194 89.876C176.951 90.1747 176.83 90.5573 176.83 91.024C176.83 91.6773 177.063 92.2187 177.53 92.648C177.997 93.0587 178.594 93.264 179.322 93.264ZM198.449 95V87.02C198.449 85.564 198.234 84.472 197.805 83.744C197.394 82.9973 196.629 82.624 195.509 82.624C194.519 82.624 193.698 82.8947 193.045 83.436C192.41 83.9587 191.962 84.6213 191.701 85.424V95H189.461V81H191.029L191.449 82.708H191.561C192.009 82.1107 192.606 81.6253 193.353 81.252C194.118 80.86 195.023 80.664 196.069 80.664C196.834 80.664 197.506 80.7573 198.085 80.944C198.663 81.112 199.139 81.42 199.513 81.868C199.905 82.316 200.194 82.9227 200.381 83.688C200.586 84.4347 200.689 85.3867 200.689 86.544V95H198.449ZM224.194 86.012H214.786V95H212.462V75.4H214.786V83.94H224.194V75.4H226.518V95H224.194V86.012ZM230.827 82.036C231.536 81.6067 232.357 81.2893 233.291 81.084C234.243 80.8787 235.232 80.776 236.259 80.776C237.229 80.776 238.004 80.9067 238.583 81.168C239.18 81.4293 239.628 81.7747 239.927 82.204C240.244 82.6147 240.449 83.072 240.543 83.576C240.655 84.08 240.711 84.584 240.711 85.088C240.711 86.208 240.683 87.3 240.627 88.364C240.571 89.428 240.543 90.436 240.543 91.388C240.543 92.0787 240.571 92.732 240.627 93.348C240.683 93.964 240.785 94.5333 240.935 95.056H239.283L238.695 93.096H238.555C238.387 93.3573 238.172 93.6187 237.911 93.88C237.668 94.1227 237.369 94.3467 237.015 94.552C236.66 94.7387 236.249 94.8973 235.783 95.028C235.316 95.1587 234.784 95.224 234.187 95.224C233.589 95.224 233.029 95.1307 232.507 94.944C232.003 94.7573 231.564 94.496 231.191 94.16C230.817 93.8053 230.519 93.3853 230.295 92.9C230.089 92.4147 229.987 91.864 229.987 91.248C229.987 90.4267 230.155 89.7453 230.491 89.204C230.827 88.644 231.293 88.2053 231.891 87.888C232.507 87.552 233.235 87.3187 234.075 87.188C234.933 87.0387 235.876 86.964 236.903 86.964C237.164 86.964 237.416 86.964 237.659 86.964C237.92 86.964 238.181 86.9827 238.443 87.02C238.499 86.46 238.527 85.956 238.527 85.508C238.527 84.4813 238.321 83.7627 237.911 83.352C237.5 82.9413 236.753 82.736 235.671 82.736C235.353 82.736 235.008 82.764 234.635 82.82C234.28 82.8573 233.907 82.9227 233.515 83.016C233.141 83.0907 232.777 83.1933 232.423 83.324C232.087 83.436 231.788 83.5667 231.527 83.716L230.827 82.036ZM234.803 93.264C235.325 93.264 235.792 93.1987 236.203 93.068C236.613 92.9187 236.968 92.7413 237.267 92.536C237.565 92.312 237.808 92.0693 237.995 91.808C238.2 91.5467 238.349 91.2947 238.443 91.052V88.728C238.181 88.7093 237.911 88.7 237.631 88.7C237.369 88.6813 237.108 88.672 236.847 88.672C236.268 88.672 235.699 88.7093 235.139 88.784C234.597 88.84 234.112 88.9613 233.683 89.148C233.272 89.316 232.936 89.5587 232.675 89.876C232.432 90.1747 232.311 90.5573 232.311 91.024C232.311 91.6773 232.544 92.2187 233.011 92.648C233.477 93.0587 234.075 93.264 234.803 93.264ZM254.489 94.076C253.929 94.4867 253.266 94.7947 252.501 95C251.736 95.224 250.933 95.336 250.093 95.336C249.01 95.336 248.096 95.168 247.349 94.832C246.602 94.4773 245.986 93.9827 245.501 93.348C245.034 92.6947 244.689 91.92 244.465 91.024C244.26 90.1093 244.157 89.1013 244.157 88C244.157 85.6293 244.68 83.8187 245.725 82.568C246.77 81.2987 248.273 80.664 250.233 80.664C251.129 80.664 251.885 80.7387 252.501 80.888C253.136 81.0187 253.705 81.2147 254.209 81.476L253.565 83.408C253.136 83.1653 252.66 82.9787 252.137 82.848C251.614 82.6987 251.054 82.624 250.457 82.624C247.806 82.624 246.481 84.416 246.481 88C246.481 88.7093 246.546 89.3907 246.677 90.044C246.826 90.6787 247.06 91.248 247.377 91.752C247.713 92.2373 248.142 92.6293 248.665 92.928C249.206 93.2267 249.869 93.376 250.653 93.376C251.325 93.376 251.922 93.2733 252.445 93.068C252.986 92.8627 253.425 92.6293 253.761 92.368L254.489 94.076ZM261.102 88.7H259.814V95H257.574V75.4H259.814V87.328L260.962 86.936L265.302 81H267.906L263.622 86.628L262.474 87.552L263.874 88.672L268.55 95H265.778L261.102 88.7ZM270.748 82.036C271.458 81.6067 272.279 81.2893 273.212 81.084C274.164 80.8787 275.154 80.776 276.18 80.776C277.151 80.776 277.926 80.9067 278.504 81.168C279.102 81.4293 279.55 81.7747 279.848 82.204C280.166 82.6147 280.371 83.072 280.464 83.576C280.576 84.08 280.632 84.584 280.632 85.088C280.632 86.208 280.604 87.3 280.548 88.364C280.492 89.428 280.464 90.436 280.464 91.388C280.464 92.0787 280.492 92.732 280.548 93.348C280.604 93.964 280.707 94.5333 280.856 95.056H279.204L278.616 93.096H278.476C278.308 93.3573 278.094 93.6187 277.832 93.88C277.59 94.1227 277.291 94.3467 276.936 94.552C276.582 94.7387 276.171 94.8973 275.704 95.028C275.238 95.1587 274.706 95.224 274.108 95.224C273.511 95.224 272.951 95.1307 272.428 94.944C271.924 94.7573 271.486 94.496 271.112 94.16C270.739 93.8053 270.44 93.3853 270.216 92.9C270.011 92.4147 269.908 91.864 269.908 91.248C269.908 90.4267 270.076 89.7453 270.412 89.204C270.748 88.644 271.215 88.2053 271.812 87.888C272.428 87.552 273.156 87.3187 273.996 87.188C274.855 87.0387 275.798 86.964 276.824 86.964C277.086 86.964 277.338 86.964 277.58 86.964C277.842 86.964 278.103 86.9827 278.364 87.02C278.42 86.46 278.448 85.956 278.448 85.508C278.448 84.4813 278.243 83.7627 277.832 83.352C277.422 82.9413 276.675 82.736 275.592 82.736C275.275 82.736 274.93 82.764 274.556 82.82C274.202 82.8573 273.828 82.9227 273.436 83.016C273.063 83.0907 272.699 83.1933 272.344 83.324C272.008 83.436 271.71 83.5667 271.448 83.716L270.748 82.036ZM274.724 93.264C275.247 93.264 275.714 93.1987 276.124 93.068C276.535 92.9187 276.89 92.7413 277.188 92.536C277.487 92.312 277.73 92.0693 277.916 91.808C278.122 91.5467 278.271 91.2947 278.364 91.052V88.728C278.103 88.7093 277.832 88.7 277.552 88.7C277.291 88.6813 277.03 88.672 276.768 88.672C276.19 88.672 275.62 88.7093 275.06 88.784C274.519 88.84 274.034 88.9613 273.604 89.148C273.194 89.316 272.858 89.5587 272.596 89.876C272.354 90.1747 272.232 90.5573 272.232 91.024C272.232 91.6773 272.466 92.2187 272.932 92.648C273.399 93.0587 273.996 93.264 274.724 93.264ZM283.015 81H285.199V78.228L287.439 77.584V81H291.247V82.96H287.439V90.716C287.439 91.6867 287.56 92.3773 287.803 92.788C288.046 93.18 288.456 93.376 289.035 93.376C289.52 93.376 289.931 93.3293 290.267 93.236C290.603 93.124 290.976 92.984 291.387 92.816L291.891 94.524C291.387 94.7667 290.836 94.9627 290.239 95.112C289.642 95.2613 288.998 95.336 288.307 95.336C287.168 95.336 286.366 95.0187 285.899 94.384C285.432 93.7307 285.199 92.648 285.199 91.136V82.96H283.015V81ZM303.339 95V87.02C303.339 86.292 303.293 85.6573 303.199 85.116C303.125 84.556 302.975 84.0987 302.751 83.744C302.527 83.3707 302.219 83.0907 301.827 82.904C301.454 82.7173 300.959 82.624 300.343 82.624C299.466 82.624 298.673 82.9133 297.963 83.492C297.254 84.052 296.797 84.78 296.591 85.676V95H294.351V75.4H296.591V82.568H296.703C297.189 81.9893 297.767 81.532 298.439 81.196C299.13 80.8413 299.979 80.664 300.987 80.664C301.771 80.664 302.453 80.7573 303.031 80.944C303.61 81.112 304.086 81.42 304.459 81.868C304.851 82.316 305.131 82.9227 305.299 83.688C305.486 84.4347 305.579 85.3867 305.579 86.544V95H303.339ZM308.88 88C308.88 85.6293 309.402 83.8187 310.448 82.568C311.512 81.2987 313.033 80.664 315.012 80.664C316.057 80.664 316.962 80.8413 317.728 81.196C318.512 81.532 319.156 82.0267 319.66 82.68C320.164 83.3147 320.537 84.0893 320.78 85.004C321.022 85.9 321.144 86.8987 321.144 88C321.144 90.3707 320.612 92.1907 319.548 93.46C318.502 94.7107 316.99 95.336 315.012 95.336C313.966 95.336 313.052 95.168 312.268 94.832C311.502 94.4773 310.868 93.9827 310.364 93.348C309.86 92.6947 309.486 91.92 309.244 91.024C309.001 90.1093 308.88 89.1013 308.88 88ZM311.204 88C311.204 88.7093 311.269 89.3907 311.4 90.044C311.549 90.6973 311.773 91.2667 312.072 91.752C312.37 92.2373 312.762 92.6293 313.248 92.928C313.733 93.2267 314.321 93.376 315.012 93.376C317.55 93.3947 318.82 91.6027 318.82 88C318.82 87.272 318.745 86.5813 318.596 85.928C318.465 85.2747 318.25 84.7053 317.952 84.22C317.653 83.7347 317.261 83.352 316.776 83.072C316.29 82.7733 315.702 82.624 315.012 82.624C312.473 82.6053 311.204 84.3973 311.204 88ZM333.664 95V87.02C333.664 85.564 333.449 84.472 333.02 83.744C332.609 82.9973 331.844 82.624 330.724 82.624C329.734 82.624 328.913 82.8947 328.26 83.436C327.625 83.9587 327.177 84.6213 326.916 85.424V95H324.676V81H326.244L326.664 82.708H326.776C327.224 82.1107 327.821 81.6253 328.568 81.252C329.333 80.86 330.238 80.664 331.284 80.664C332.049 80.664 332.721 80.7573 333.3 80.944C333.878 81.112 334.354 81.42 334.728 81.868C335.12 82.316 335.409 82.9227 335.596 83.688C335.801 84.4347 335.904 85.3867 335.904 86.544V95H333.664Z" fill="#222121"/>
    <path d="M17.34 48.7H12L9.84 57.94H3.42L5.58 48.7H1.14L2.46 42.88H6.96L8.46 36.52H4.14L5.46 30.7H9.84L11.94 22.06H18.3L16.26 30.7H21.6L23.7 22.06H30.06L28.02 30.7H32.34L30.84 36.52H26.64L25.14 42.88H29.28L27.84 48.7H23.76L21.6 57.94H15.18L17.34 48.7ZM13.38 42.88H18.72L20.22 36.52H14.88L13.38 42.88ZM37.643 19H62.543V26.32H45.863V36.1H61.043V43.42H45.863V53.68H62.843V61H37.643V19ZM91.7906 19H99.5906V46.12C99.5906 48.84 99.2306 51.18 98.5106 53.14C97.7906 55.1 96.7906 56.72 95.5106 58C94.2306 59.28 92.6706 60.22 90.8306 60.82C88.9906 61.42 86.9706 61.72 84.7706 61.72C74.1306 61.72 68.8106 56.86 68.8106 47.14V19H77.0306V45.52C77.0306 47.16 77.1706 48.56 77.4506 49.72C77.7706 50.84 78.2506 51.76 78.8906 52.48C79.5306 53.16 80.3306 53.66 81.2906 53.98C82.2506 54.26 83.3706 54.4 84.6506 54.4C87.1706 54.4 88.9906 53.7 90.1106 52.3C91.2306 50.9 91.7906 48.64 91.7906 45.52V19ZM116.808 46.72L117.828 51.34H118.128L118.968 46.6L124.068 31H132.468L119.928 61.3H115.188L102.168 31H111.228L116.808 46.72ZM147.442 52.72C147.442 51.92 147.102 51.28 146.422 50.8C145.742 50.32 144.902 49.88 143.902 49.48C142.902 49.08 141.802 48.68 140.602 48.28C139.402 47.84 138.302 47.26 137.302 46.54C136.302 45.78 135.462 44.84 134.782 43.72C134.102 42.56 133.762 41.08 133.762 39.28C133.762 36.32 134.642 34.06 136.402 32.5C138.162 30.94 140.702 30.16 144.022 30.16C146.302 30.16 148.362 30.4 150.202 30.88C152.042 31.36 153.482 31.9 154.522 32.5L152.782 38.14C151.862 37.78 150.702 37.4 149.302 37C147.902 36.6 146.482 36.4 145.042 36.4C142.722 36.4 141.562 37.3 141.562 39.1C141.562 39.82 141.902 40.4 142.582 40.84C143.262 41.28 144.102 41.7 145.102 42.1C146.102 42.46 147.202 42.86 148.402 43.3C149.602 43.74 150.702 44.32 151.702 45.04C152.702 45.72 153.542 46.62 154.222 47.74C154.902 48.86 155.242 50.3 155.242 52.06C155.242 55.1 154.262 57.5 152.302 59.26C150.382 60.98 147.482 61.84 143.602 61.84C141.482 61.84 139.482 61.56 137.602 61C135.762 60.48 134.262 59.86 133.102 59.14L135.262 53.32C136.182 53.84 137.402 54.36 138.922 54.88C140.442 55.36 142.002 55.6 143.602 55.6C144.762 55.6 145.682 55.38 146.362 54.94C147.082 54.5 147.442 53.76 147.442 52.72ZM174.314 43.66L175.394 50.8H175.694L176.894 43.6L184.934 19H193.574L177.974 61.3H172.094L156.374 19H165.914L174.314 43.66ZM197.088 31H204.888V61H197.088V31ZM195.948 22.54C195.948 21.38 196.368 20.4 197.208 19.6C198.088 18.76 199.288 18.34 200.808 18.34C202.328 18.34 203.548 18.76 204.468 19.6C205.428 20.4 205.908 21.38 205.908 22.54C205.908 23.7 205.428 24.68 204.468 25.48C203.548 26.24 202.328 26.62 200.808 26.62C199.288 26.62 198.088 26.24 197.208 25.48C196.368 24.68 195.948 23.7 195.948 22.54ZM229.101 38.32C227.861 37.88 226.741 37.66 225.741 37.66C224.341 37.66 223.161 38.04 222.201 38.8C221.281 39.52 220.661 40.46 220.341 41.62V61H212.541V31H218.601L219.501 34.96H219.741C220.421 33.48 221.341 32.34 222.501 31.54C223.661 30.74 225.021 30.34 226.581 30.34C227.621 30.34 228.801 30.56 230.121 31L229.101 38.32ZM241.076 31V48.04C241.076 50.48 241.356 52.24 241.916 53.32C242.516 54.4 243.656 54.94 245.336 54.94C246.816 54.94 248.036 54.5 248.996 53.62C249.996 52.74 250.736 51.66 251.216 50.38V31H259.016V51.88C259.016 53.52 259.096 55.14 259.256 56.74C259.416 58.3 259.656 59.72 259.976 61H254.096L252.716 56.56H252.476C251.556 58.08 250.276 59.34 248.636 60.34C246.996 61.34 245.056 61.84 242.816 61.84C241.296 61.84 239.936 61.64 238.736 61.24C237.536 60.84 236.536 60.18 235.736 59.26C234.936 58.34 234.316 57.1 233.876 55.54C233.476 53.98 233.276 52.02 233.276 49.66V31H241.076ZM278.281 52.72C278.281 51.92 277.941 51.28 277.261 50.8C276.581 50.32 275.741 49.88 274.741 49.48C273.741 49.08 272.641 48.68 271.441 48.28C270.241 47.84 269.141 47.26 268.141 46.54C267.141 45.78 266.301 44.84 265.621 43.72C264.941 42.56 264.601 41.08 264.601 39.28C264.601 36.32 265.481 34.06 267.241 32.5C269.001 30.94 271.541 30.16 274.861 30.16C277.141 30.16 279.201 30.4 281.041 30.88C282.881 31.36 284.321 31.9 285.361 32.5L283.621 38.14C282.701 37.78 281.541 37.4 280.141 37C278.741 36.6 277.321 36.4 275.881 36.4C273.561 36.4 272.401 37.3 272.401 39.1C272.401 39.82 272.741 40.4 273.421 40.84C274.101 41.28 274.941 41.7 275.941 42.1C276.941 42.46 278.041 42.86 279.241 43.3C280.441 43.74 281.541 44.32 282.541 45.04C283.541 45.72 284.381 46.62 285.061 47.74C285.741 48.86 286.081 50.3 286.081 52.06C286.081 55.1 285.101 57.5 283.141 59.26C281.221 60.98 278.321 61.84 274.441 61.84C272.321 61.84 270.321 61.56 268.441 61C266.601 60.48 265.101 59.86 263.941 59.14L266.101 53.32C267.021 53.84 268.241 54.36 269.761 54.88C271.281 55.36 272.841 55.6 274.441 55.6C275.601 55.6 276.521 55.38 277.201 54.94C277.921 54.5 278.281 53.76 278.281 52.72Z" fill="#222121"/>
</svg>
