<svg width="62px" height="45px" viewBox="0 0 62 45" version="1.1" xmlns="http://www.w3.org/2000/svg" xmlns:xlink="http://www.w3.org/1999/xlink">
    <g id="COVID-19" stroke="none" stroke-width="1" fill="none" fill-rule="evenodd">
        <g id="001---step-1-(-Black-)-(-Desktop-)" transform="translate(-689.000000, -542.000000)" fill="#FFFFFF">
            <g id="UPLOAD" transform="translate(185.000000, 478.000000)">
                <g id="CONTENT-UPLOAD" transform="translate(425.000000, 64.000000)">
                    <g id="icon/upload" transform="translate(79.000000, 0.000000)">
                        <g id="icon-upload">
                            <g>
                                <path d="M13.9932433,44.373555 L22.1307433,44.373555 L22.1307433,38.6592692 L13.9932433,38.6592692 C9.35522056,38.6592692 5.59506147,34.8471264 5.59506147,30.1449835 C5.59506147,25.4428407 9.35522056,21.6306978 13.9932433,21.6306978 L15.6771069,21.6306978 C17.1369251,21.6371264 18.360016,20.5121264 18.4952887,19.0378407 C19.1716524,11.6021264 25.6464251,5.71641211 33.2202887,5.71641211 C40.974516,5.63569782 47.4542206,11.6821264 48.0157433,19.523555 C48.0847887,20.6921264 48.8492206,21.6999835 49.9461978,22.0664121 C54.3552433,23.5149835 56.7704251,28.3121264 55.3423115,32.7814121 C54.2178569,36.2999835 50.9804706,38.678555 47.3323342,38.6664121 L39.1807433,38.6664121 L39.1807433,44.3806978 L47.3182433,44.3806978 C55.0647206,44.4278407 61.3830842,38.0992692 61.4295842,30.2449835 C61.4619933,24.7264121 58.3429706,19.6864121 53.4266524,17.3164121 C51.7836524,7.30641211 43.229766,-0.0235878939 33.2202887,0.00212639186 C23.6891978,-0.136445037 15.3656978,6.51141211 13.2675615,15.9378407 C5.52812965,16.3678407 -0.402733988,23.0771264 0.0214023754,30.9228407 C0.427220557,38.4428407 6.54337965,44.3399835 13.9721069,44.373555 L13.9932433,44.373555 Z" id="Fill-1" opacity="0.5"></path>
                                <path d="M33.4738546,44.6309121 L33.4738546,31.7737692 L37.9336274,36.0594835 L41.8015819,31.9087692 L32.5931728,23.0809121 C31.5074683,22.0416264 29.8109228,22.0416264 28.7252183,23.0809121 L19.5097637,31.9087692 L23.3777183,36.0594835 L27.837491,31.7737692 L27.837491,44.6309121 L33.4738546,44.6309121 Z" id="Fill-4"></path>
                            </g>
                        </g>
                    </g>
                </g>
            </g>
        </g>
    </g>
</svg>
