<svg width="148px" height="49px" viewBox="0 0 148 49" version="1.1" xmlns="http://www.w3.org/2000/svg"
     xmlns:xlink="http://www.w3.org/1999/xlink">
    <g id="COVID-19" stroke="none" stroke-width="1" fill="none" fill-rule="evenodd">
        <g id="000---home-(-White-)-(-Desktop-)" transform="translate(-1086.000000, -1863.000000)">
            <rect x="0" y="0" width="1440" height="7093"></rect>
            <g id="PARTNERS" transform="translate(185.000000, 1488.000000)">
                <g id="CONTENT">
                    <g id="PARTNERS-CASE" transform="translate(0.000000, 299.000000)">
                        <g id="CASE-5" transform="translate(880.000000, 0.000000)">
                            <g id="logo/GOOGLE/COLOR" transform="translate(21.000000, 76.000000)">
                                <g>
                                    <g>
                                        <path
                                            d="M57.9117422,25.7165764 C57.9117422,21.3236438 54.7379644,18.3175764 51.0544089,18.3175764 C47.3708533,18.3175764 44.1970756,21.3236438 44.1970756,25.7165764 C44.1970756,30.0660146 47.3708533,33.116127 51.0544089,33.116127 C54.7379644,33.116127 57.9117422,30.0610596 57.9117422,25.7165764 M63.2507052,25.7165764 C63.2507052,32.7478011 57.7747052,37.9285876 51.0544089,37.9285876 C44.3341126,37.9285876 38.8581126,32.7478011 38.8581126,25.7165764 C38.8581126,18.6363517 44.3341126,13.5051157 51.0544089,13.5051157 C57.7747052,13.5051157 63.2507052,18.6363517 63.2507052,25.7165764"
                                            id="Fill-1" fill="#EA4335"></path>
                                        <path
                                            d="M84.2228533,25.7165764 C84.2228533,21.3236438 81.0490756,18.3175764 77.36552,18.3175764 C73.6819644,18.3175764 70.5081867,21.3236438 70.5081867,25.7165764 C70.5081867,30.0660146 73.6819644,33.116127 77.36552,33.116127 C81.0490756,33.116127 84.2228533,30.0610596 84.2228533,25.7165764 M89.5618163,25.7165764 C89.5618163,32.7478011 84.0858163,37.9285876 77.36552,37.9285876 C70.6452237,37.9285876 65.1692237,32.7478011 65.1692237,25.7165764 C65.1692237,18.6418573 70.6452237,13.5051157 77.36552,13.5051157 C84.0858163,13.5051157 89.5618163,18.6363517 89.5618163,25.7165764"
                                            id="Fill-3" fill="#FBBC05"></path>
                                        <path
                                            d="M110.084812,25.7606764 C110.084812,21.4607888 107.22896,18.3170809 103.59419,18.3170809 C99.9106341,18.3170809 96.8251081,21.4607888 96.8251081,25.7606764 C96.8251081,30.0165191 99.9106341,33.116182 103.59419,33.116182 C107.22896,33.116182 110.084812,30.0165191 110.084812,25.7606764 Z M114.77696,14.2429236 L114.77696,36.1662944 C114.77696,45.1844966 109.481301,48.8683056 103.221449,48.8683056 C97.3288563,48.8683056 93.7828859,44.9092157 92.4448563,41.6719124 L97.0937007,39.7284292 C97.9214044,41.7159573 99.9495526,44.0613506 103.216516,44.0613506 C107.22293,44.0613506 109.70659,41.5783169 109.70659,36.9040472 L109.70659,35.1477551 L109.520219,35.1477551 C108.325256,36.6287663 106.023034,37.9225865 103.117849,37.9225865 C97.0383378,37.9225865 91.4697007,32.6047101 91.4697007,25.7606764 C91.4697007,18.8676427 97.0383378,13.5051708 103.117849,13.5051708 C106.017004,13.5051708 108.319227,14.798991 109.520219,16.2359573 L109.70659,16.2359573 L109.70659,14.2484292 L114.77696,14.2484292 L114.77696,14.2429236 Z"
                                            id="Fill-5" fill="#4285F4"></path>
                                        <polygon id="Fill-8" fill="#34A853"
                                                 points="117.928593 37.1794382 123.136 37.1794382 123.136 1.39292135 117.928593 1.39292135"></polygon>
                                        <path
                                            d="M130.673037,25.3423596 L141.537333,20.811236 C140.939852,19.2861798 139.141926,18.2235955 137.026074,18.2235955 C134.312741,18.2235955 130.536,20.6295506 130.673037,25.3423596 M143.428444,29.7358427 L147.572444,32.5106742 C146.234963,34.4982022 143.011852,37.9226966 137.442667,37.9226966 C130.536,37.9226966 125.377926,32.5602247 125.377926,25.711236 C125.377926,18.4493258 130.579852,13.4997753 136.845185,13.4997753 C143.15437,13.4997753 146.240444,18.5429213 147.249037,21.2682022 L147.802667,22.655618 L131.550074,29.4165169 C132.79437,31.8665169 134.729333,33.1162921 137.442667,33.1162921 C140.161481,33.1162921 142.047111,31.7729213 143.428444,29.7358427"
                                            id="Fill-10" fill="#EA4335"></path>
                                        <path
                                            d="M19.1468148,22.5400551 L19.1468148,17.3592685 L36.5285926,17.3592685 C36.6985185,18.2621899 36.7862222,19.3302798 36.7862222,20.4864596 C36.7862222,24.3734258 35.7282963,29.1798303 32.3188148,32.6043247 C29.0025185,36.072864 24.7653333,37.9222011 19.1522963,37.9222011 C8.74844444,37.9222011 0,29.4105157 0,18.9614034 C0,8.51174045 8.74844444,5.50561798e-05 19.1522963,5.50561798e-05 C24.9078519,5.50561798e-05 29.008,2.26836966 32.0885926,5.22488652 L28.4488889,8.88061685 C26.2398519,6.79949326 23.246963,5.18084157 19.1468148,5.18084157 C11.5494815,5.18084157 5.60755556,11.3306169 5.60755556,18.9614034 C5.60755556,26.5916393 11.5494815,32.7419652 19.1468148,32.7419652 C24.0746667,32.7419652 26.8811852,30.7544371 28.6791111,28.9485944 C30.1371852,27.4835494 31.0964444,25.3919652 31.4746667,22.5345494 L19.1468148,22.5400551 Z"
                                            id="Fill-11" fill="#4285F4"></path>
                                    </g>
                                </g>
                            </g>
                        </g>
                    </g>
                </g>
            </g>
        </g>
    </g>
</svg>
