<svg width="161px" height="37px" viewBox="0 0 161 37" version="1.1" xmlns="http://www.w3.org/2000/svg"
     xmlns:xlink="http://www.w3.org/1999/xlink">
    <g id="COVID-19" stroke="none" stroke-width="1" fill="none" fill-rule="evenodd">
        <g id="000---home-(-White-)-(-Desktop-)" transform="translate(-420.000000, -1870.000000)">
            <rect x="0" y="0" width="1440" height="7093"></rect>
            <g id="PARTNERS" transform="translate(185.000000, 1488.000000)">
                <g id="CONTENT">
                    <g id="PARTNERS-CASE" transform="translate(0.000000, 299.000000)">
                        <g id="CASE-3" transform="translate(220.000000, 0.000000)">
                            <g id="logo/HUG/COLOR" transform="translate(15.000000, 82.000000)">
                                <g>
                                    <g id="Group-15" transform="translate(0.000000, 0.909800)">
                                        <path
                                            d="M22.7103,20.1257 L22.7103,13.5937 L10.6433,13.5937 L10.6433,0.7607 L0.0003,0.7607 L0.0003,36.3297 L10.6433,36.3297 L10.6433,21.4767 L22.7103,21.4767 L22.7103,36.3297 L33.2783,36.3297 C31.1803,35.7997 29.3803,34.9797 27.7323,33.9297 C23.3103,30.8487 22.7103,25.3767 22.7103,20.1257"
                                            id="Fill-1" fill="#91D79E"></path>
                                        <path
                                            d="M56.0638,2.6408 L56.0638,0.7608 L46.0948,0.7608 L46.0948,18.7748 C46.1698,11.4938 49.9168,5.7118 56.0638,2.6408"
                                            id="Fill-3" fill="#56C9F3"></path>
                                        <path
                                            d="M46.095,19.0754 L46.095,19.9754 C46.095,25.2274 45.27,28.2284 39.424,28.2284 C34.402,28.2284 33.428,25.2964 33.278,21.0954 L33.278,36.3294 C35.077,36.7804 37.101,36.9994 39.199,36.9994 C44.67,36.9994 49.093,35.4294 52.091,32.4284 C48.343,29.3484 46.17,24.6974 46.095,19.0754"
                                            id="Fill-5" fill="#56C9F3"></path>
                                        <path
                                            d="M33.2781,21.0954 L33.2781,19.9754 L33.2781,0.7604 L22.7101,0.7604 L22.7101,13.5944 L22.7101,20.1254 C22.7101,25.3764 23.3101,30.8484 27.7321,33.9294 C29.3811,34.9794 31.1801,35.7994 33.2781,36.3294 L33.2781,21.0964 L33.2781,21.0954 Z"
                                            id="Fill-7" fill="#3ABDAF"></path>
                                        <path
                                            d="M67.9095,8.4123 C70.8265,8.4123 73.6045,9.0123 76.1525,10.0623 L78.7005,2.4113 C76.1525,1.2903 72.1055,0.0903 67.2295,0.0903 C62.9585,0.0903 59.2105,0.9903 56.0635,2.6413 L56.0635,18.8453 C56.0635,12.6133 61.0105,8.4123 67.9095,8.4123"
                                            id="Fill-9" fill="#6DCDBD"></path>
                                        <path
                                            d="M69.0286,28.3776 C68.2786,28.5976 67.4596,28.5976 66.4806,28.5976 C60.5606,28.5976 56.0636,24.6266 56.0636,18.8456 L56.0636,19.5956 C56.0636,24.8466 55.4636,29.1276 52.2406,32.3486 C52.2406,32.3486 52.1656,32.4286 52.0916,32.4286 C55.5386,35.3496 60.2596,36.9306 65.8116,36.9306 C68.9586,36.9306 72.4756,36.3996 75.4726,35.3496 C76.0726,35.1996 76.9016,34.8986 78.4696,34.2296 L78.4696,18.3246 L69.0286,18.3246 L69.0286,28.3776 Z"
                                            id="Fill-11" fill="#6DCDBD"></path>
                                        <path
                                            d="M56.0638,19.5954 L56.0638,18.8454 L56.0638,2.6404 C49.9168,5.7114 46.1698,11.4934 46.0948,18.7754 L46.0948,19.0754 C46.1698,24.6974 48.3428,29.3484 52.0908,32.4284 C52.1658,32.4284 52.2408,32.3484 52.2408,32.3484 C55.4628,29.1274 56.0638,24.8464 56.0638,19.5954"
                                            id="Fill-13" fill="#26B7BF"></path>
                                    </g>
                                    <polygon id="Fill-16" fill="#474747"
                                             points="97.0638 11.803 97.0638 11.803 97.0638 7.672 92.3378 7.672 92.3378 11.803 91.3698 11.803 91.3698 3.1 92.3378 3.1 92.3378 6.851 97.0638 6.851 97.0638 3.1 98.0338 3.1 98.0338 11.803"></polygon>
                                    <g id="Group-29" transform="translate(99.000000, 2.909800)" fill="#474747">
                                        <path
                                            d="M3.4593,3.4919 C2.4103,3.4919 1.6613,4.3919 1.6613,5.7419 C1.6613,7.1629 2.4103,8.2129 3.4593,8.2129 C4.5783,8.2129 5.2583,7.3129 5.2583,5.8919 C5.2583,4.4619 4.5783,3.4919 3.4593,3.4919 Z M4.8783,2.1409 L3.4593,1.2409 L2.0303,2.1409 L1.5813,1.6109 L3.4593,0.0409 L5.3283,1.6109 L4.8783,2.1409 Z M3.3793,9.0429 C1.7303,9.0429 0.6823,7.7629 0.6823,5.8919 C0.6823,4.9119 0.9113,4.3119 1.3613,3.7119 C1.9613,3.0419 2.7103,2.6609 3.5293,2.6609 C5.1073,2.6609 6.2273,3.9419 6.2273,5.8119 C6.2273,7.6129 5.0283,9.0429 3.3793,9.0429 Z"
                                            id="Fill-17"></path>
                                        <path
                                            d="M10.5735,3.5617 C9.9035,3.5617 9.1545,4.0117 8.6255,4.7617 L8.6255,7.0927 C9.1545,7.8427 9.7545,8.2127 10.4235,8.2127 C11.4725,8.2127 12.1515,7.2427 12.1515,5.8117 C12.1515,4.4617 11.4725,3.5617 10.5735,3.5617 M10.4235,9.0427 C9.6745,9.0427 9.1545,8.7427 8.6255,8.1427 L8.6255,11.8937 L7.7255,11.8937 L7.7255,2.8117 L8.6255,2.8117 L8.6255,3.7117 C9.3745,2.9617 9.9735,2.6617 10.7225,2.6617 C12.1515,2.6617 13.1215,3.8617 13.1215,5.5927 C13.1215,7.6127 12.0025,9.0427 10.4235,9.0427"
                                            id="Fill-19"></path>
                                        <path
                                            d="M14.6302,2.8112 L15.5292,2.8112 L15.5292,8.8932 L14.6302,8.8932 L14.6302,2.8112 Z M15.0792,2.1412 C14.7792,2.1412 14.4802,1.9112 14.4802,1.6112 C14.4802,1.2412 14.7792,1.0112 15.0792,1.0112 C15.3792,1.0112 15.6792,1.2412 15.6792,1.6112 C15.6792,1.9112 15.3792,2.1412 15.0792,2.1412 Z"
                                            id="Fill-21"></path>
                                        <path
                                            d="M18.9759,9.0431 C17.9269,9.0431 17.4779,8.5931 17.4779,7.6131 L17.4779,7.0921 L17.4779,3.5621 L16.4279,3.5621 L16.4279,2.8121 L17.4779,2.8121 L17.4779,1.1611 L18.2969,1.1611 L18.2969,2.8121 L19.8749,2.8121 L19.8749,3.5621 L18.2969,3.5621 L18.2969,7.0921 C18.2969,7.3931 18.3759,7.6131 18.3759,7.7631 C18.4469,8.1431 18.7469,8.2931 19.2759,8.2931 C19.4259,8.2931 19.6459,8.2131 19.8749,8.2131 L19.8749,8.8931 C19.4259,8.9631 19.2759,9.0431 18.9759,9.0431"
                                            id="Fill-23"></path>
                                        <path
                                            d="M24.1419,5.8122 C22.4229,6.2622 21.6739,6.7922 21.6739,7.4622 C21.6739,7.8432 21.8939,8.1432 22.3429,8.1432 C22.7929,8.1432 23.5419,7.7632 24.1419,7.0922 L24.1419,5.8122 Z M25.1909,9.0432 C24.5219,9.0432 24.2219,8.6632 24.1419,7.9932 C23.9219,8.2132 23.8419,8.2932 23.6919,8.3632 C23.1719,8.8132 22.6429,8.9632 22.1229,8.9632 C21.2939,8.9632 20.6949,8.3632 20.6949,7.5422 C20.6949,6.4122 21.8239,5.5922 24.1419,5.0622 L24.1419,4.8422 C24.1419,3.7912 23.9219,3.4922 23.2429,3.4922 C23.0229,3.4922 22.7929,3.5622 22.4939,3.6422 C22.1229,3.7912 21.8939,3.9422 21.3739,4.3922 L20.8449,3.7912 C21.5939,3.1112 22.6429,2.6622 23.3919,2.6622 C23.9919,2.6622 24.3709,2.8122 24.6709,3.1912 C24.8909,3.4922 24.9709,3.8622 24.9709,4.6922 L24.9709,5.2122 L24.9709,7.3122 L24.9709,7.6132 C24.9709,7.6932 25.0409,7.8432 25.0409,7.9132 C25.0409,8.1432 25.1909,8.2932 25.4909,8.2932 C25.5709,8.2932 25.6409,8.2132 25.7899,8.2132 L25.8709,8.8132 C25.6409,8.9632 25.4199,9.0432 25.1909,9.0432 Z"
                                            id="Fill-25"></path>
                                        <path
                                            d="M30.8157,8.8932 L30.8157,7.9132 C30.1367,8.6632 29.3177,9.0432 28.4877,9.0432 C27.9677,9.0432 27.5187,8.8132 27.2187,8.5132 C26.9197,8.1432 26.8387,7.6922 26.8387,6.7122 L26.8387,2.8112 L27.7387,2.8112 L27.7387,6.4122 L27.7387,7.3932 C27.8187,7.9132 28.1877,8.2132 28.7177,8.2132 C29.3177,8.2132 30.1357,7.6922 30.8157,6.9422 L30.8157,2.8112 L31.7147,2.8112 L31.7147,8.8932 L30.8157,8.8932 Z"
                                            id="Fill-27"></path>
                                    </g>
                                    <polygon id="Fill-30" fill="#474747"
                                             points="136.4105 11.803 136.4105 11.803 134.6115 9.252 132.8135 11.803 131.7645 11.803 134.0825 8.572 131.9835 5.721 133.1135 5.721 134.6815 7.902 136.2605 5.721 137.2295 5.721 135.2115 8.572 137.5395 11.803"></polygon>
                                    <g id="Group-37" transform="translate(91.000000, 13.909800)" fill="#474747">
                                        <path
                                            d="M3.5169,9.7458 C2.5379,9.7458 1.7879,9.4458 1.1889,8.9268 C0.5889,8.3958 0.3699,7.6448 0.3699,6.4448 L0.3699,0.8938 L1.3379,0.8938 L1.3379,6.4448 C1.3379,7.1258 1.3379,7.4258 1.5679,7.7958 C1.8679,8.4758 2.6179,8.8468 3.5859,8.8468 C4.2659,8.8468 4.7859,8.6958 5.3149,8.3258 C5.9139,7.8758 6.1339,7.3458 6.1339,6.1448 L6.1339,0.8938 L7.0339,0.8938 L7.0339,6.3758 C7.0339,8.4758 5.6849,9.7458 3.5159,9.7458 L3.5169,9.7458 Z"
                                            id="Fill-31"></path>
                                        <path
                                            d="M12.9583,9.526 L12.9583,5.925 L12.9583,5.095 C12.9583,4.495 12.5783,4.125 12.0593,4.125 C11.3793,4.125 10.6303,4.575 9.8813,5.325 L9.8813,9.526 L8.9813,9.526 L8.9813,3.525 L9.8813,3.525 L9.8813,4.425 C10.1813,4.125 10.3303,4.045 10.4803,3.895 C11.0803,3.525 11.6093,3.295 12.2093,3.295 C12.7293,3.295 13.1783,3.525 13.4783,3.895 C13.7773,4.275 13.8573,4.645 13.8573,5.545 L13.8573,9.526 L12.9583,9.526 Z"
                                            id="Fill-33"></path>
                                        <path
                                            d="M15.7259,3.525 L16.6249,3.525 L16.6249,9.526 L15.7259,9.526 L15.7259,3.525 Z M16.1749,2.844 C15.8059,2.844 15.5769,2.544 15.5769,2.244 C15.5769,1.944 15.8059,1.644 16.1749,1.644 C16.4749,1.644 16.7749,1.944 16.7749,2.244 C16.7749,2.544 16.4749,2.844 16.1749,2.844 Z"
                                            id="Fill-35"></path>
                                    </g>
                                    <polygon id="Fill-38" fill="#474747"
                                             points="111.9017 23.4358 111.9017 23.4358 111.0727 23.4358 108.6037 17.4348 109.6537 17.4348 111.5217 22.3058 113.5497 17.4348 114.4497 17.4348"></polygon>
                                    <g id="Group-67" transform="translate(90.000000, 14.909800)" fill="#474747">
                                        <path
                                            d="M27.8958,3.1247 C27.0768,3.1247 26.3978,3.7247 26.1778,4.7747 L29.3248,4.6947 C29.3248,3.7247 28.7948,3.1247 27.8958,3.1247 M29.6948,8.0757 C29.0258,8.5257 28.4258,8.7457 27.7468,8.7457 C26.1778,8.7457 25.1278,7.4767 25.1278,5.5957 C25.1278,3.7247 26.3278,2.2947 27.9758,2.2947 C29.4748,2.2947 30.2938,3.3447 30.2938,5.1457 L30.2938,5.4447 L26.0978,5.4447 L26.0978,5.6757 C26.0978,7.0257 26.7778,7.8467 27.8268,7.8467 C28.1958,7.8467 28.6458,7.7757 29.0258,7.5457 C29.3258,7.3957 29.4748,7.3257 29.9948,7.0257 L30.3748,7.5457 C30.1438,7.7757 30.0748,7.8467 29.6948,8.0757"
                                            id="Fill-39"></path>
                                        <path
                                            d="M34.7903,3.3449 C34.5703,3.2749 34.4903,3.1949 34.3413,3.1949 C33.8213,3.1949 33.1423,3.9449 32.6913,4.8449 L32.6913,8.5259 L31.7933,8.5259 L31.7933,2.5249 L32.6913,2.5249 L32.6913,3.7249 C32.7713,3.5749 32.7713,3.4949 32.8423,3.4949 C32.9913,3.1949 33.2913,2.8949 33.5213,2.7449 C33.8213,2.5249 34.1203,2.3749 34.4903,2.3749 C34.6403,2.3749 34.7903,2.4449 35.0193,2.5249 L34.7903,3.3449 Z"
                                            id="Fill-41"></path>
                                        <path
                                            d="M38.8372,8.2966 C38.3872,8.5966 37.7872,8.7466 36.9682,8.7466 C36.8182,8.7466 36.6682,8.6766 36.4392,8.6766 C36.1392,8.6766 35.9192,8.5966 35.4702,8.4456 L35.6192,7.7756 C35.7702,7.8466 35.9192,7.8466 35.9892,7.8466 C36.2892,7.9266 36.6682,7.9266 36.8882,7.9266 C38.0182,7.9266 38.7672,7.5456 38.7672,6.9456 C38.7672,6.6466 38.6162,6.4256 38.3872,6.2756 C38.1672,6.1256 38.0182,5.9756 37.4182,5.7456 C36.6682,5.3756 36.4392,5.2256 36.2192,4.9956 C35.8392,4.7756 35.6902,4.3956 35.6902,3.9446 C35.6902,2.9746 36.5892,2.2946 37.9382,2.2946 C38.0872,2.2946 38.3172,2.2946 38.5372,2.3746 C38.8372,2.3746 38.9862,2.3746 39.4362,2.5246 L39.2162,3.1946 C38.6872,3.1246 38.3172,3.0446 38.0182,3.0446 C37.1182,3.0446 36.5892,3.3446 36.5892,3.8756 C36.5892,4.1746 36.8182,4.3956 37.6382,4.7756 L38.0182,4.9956 C38.6872,5.2956 38.9862,5.4446 39.2162,5.7456 C39.5162,5.9756 39.7352,6.4256 39.7352,6.7956 C39.7352,7.3966 39.3662,7.9266 38.8372,8.2966"
                                            id="Fill-43"></path>
                                        <path
                                            d="M41.0853,2.525 L41.9833,2.525 L41.9833,8.526 L41.0853,8.526 L41.0853,2.525 Z M41.5343,1.844 C41.2343,1.844 40.9353,1.544 40.9353,1.244 C40.9353,0.944 41.2343,0.644 41.5343,0.644 C41.8343,0.644 42.1343,0.944 42.1343,1.244 C42.1343,1.544 41.8343,1.844 41.5343,1.844 Z"
                                            id="Fill-45"></path>
                                        <path
                                            d="M45.431,8.6764 C44.382,8.6764 43.863,8.2264 43.863,7.2454 L43.863,6.7954 L43.863,3.1954 L42.883,3.1954 L42.883,2.5244 L43.863,2.5244 L43.863,0.8644 L44.762,0.8644 L44.762,2.5244 L46.33,2.5244 L46.33,3.1954 L44.762,3.1954 L44.762,6.7954 C44.762,7.0264 44.762,7.3254 44.831,7.3964 C44.911,7.7764 45.131,7.9264 45.731,7.9264 C45.881,7.9264 46.031,7.9264 46.33,7.8464 L46.33,8.5264 C45.881,8.6764 45.731,8.6764 45.431,8.6764"
                                            id="Fill-47"></path>
                                        <path
                                            d="M50.5364,5.5251 C48.8884,5.9751 48.1394,6.4961 48.1394,7.1751 C48.1394,7.5461 48.3584,7.8461 48.8074,7.8461 C49.2584,7.8461 50.0074,7.3961 50.5364,6.7251 L50.5364,5.5251 Z M51.5864,8.6761 C50.9864,8.6761 50.6864,8.2961 50.6064,7.6261 C50.3874,7.8461 50.3074,7.9261 50.1574,8.0761 C49.6374,8.4461 49.1074,8.6761 48.5884,8.6761 C47.7594,8.6761 47.1594,8.0761 47.1594,7.2461 C47.1594,6.0461 48.2884,5.2251 50.5364,4.7751 L50.5364,4.4751 C50.5364,3.4951 50.3874,3.1251 49.7074,3.1251 C49.4874,3.1251 49.2584,3.1951 48.9584,3.3451 C48.5884,3.4951 48.3584,3.6451 47.8394,4.0251 L47.3094,3.4951 C48.0584,2.8251 49.1074,2.2951 49.8574,2.2951 C50.3874,2.2951 50.8364,2.5251 51.1364,2.8251 C51.3554,3.1951 51.4354,3.5751 51.4354,4.3951 L51.4354,4.9251 L51.4354,6.9461 L51.4354,7.3261 C51.4354,7.3961 51.4354,7.4761 51.5064,7.5461 C51.5064,7.8461 51.6554,7.9261 51.8864,7.9261 C52.0354,7.9261 52.1054,7.9261 52.2554,7.8461 L52.3354,8.5261 C52.1054,8.5961 51.8864,8.6761 51.5864,8.6761 Z"
                                            id="Fill-49"></path>
                                        <path
                                            d="M53.304,2.525 L54.203,2.525 L54.203,8.526 L53.304,8.526 L53.304,2.525 Z M53.754,1.844 C53.454,1.844 53.155,1.544 53.155,1.244 C53.155,0.944 53.454,0.644 53.754,0.644 C54.134,0.644 54.354,0.944 54.354,1.244 C54.354,1.544 54.134,1.844 53.754,1.844 Z"
                                            id="Fill-51"></path>
                                        <path
                                            d="M59.0794,3.3449 C58.8504,3.2749 58.7794,3.1949 58.6304,3.1949 C58.1004,3.1949 57.3504,3.9449 56.9804,4.8449 L56.9804,8.5259 L56.0824,8.5259 L56.0824,2.5249 L56.9804,2.5249 L56.9804,3.7249 C56.9804,3.5749 57.0514,3.4949 57.0514,3.4949 C57.2004,3.1949 57.5004,2.8949 57.8004,2.7449 C58.1004,2.5249 58.3994,2.3749 58.6994,2.3749 C58.9294,2.3749 58.9994,2.4449 59.2994,2.5249 L59.0794,3.3449 Z"
                                            id="Fill-53"></path>
                                        <path
                                            d="M62.596,3.1247 C61.777,3.1247 61.098,3.7247 60.948,4.7747 L64.095,4.6947 C64.095,3.7247 63.495,3.1247 62.596,3.1247 M64.475,8.0757 C63.725,8.5257 63.126,8.7457 62.447,8.7457 C60.878,8.7457 59.899,7.4767 59.899,5.5957 C59.899,3.7247 61.098,2.2947 62.746,2.2947 C64.175,2.2947 65.075,3.3447 65.075,5.1457 L65.075,5.4447 L60.878,5.4447 L60.878,5.6757 C60.878,7.0257 61.477,7.8467 62.596,7.8467 C62.976,7.8467 63.425,7.7757 63.795,7.5457 C64.095,7.3957 64.244,7.3257 64.695,7.0257 L65.144,7.5457 C64.924,7.7757 64.775,7.8467 64.475,8.0757"
                                            id="Fill-55"></path>
                                        <path
                                            d="M69.4202,8.2966 C68.8912,8.5966 68.3712,8.7466 67.5422,8.7466 C67.3222,8.7466 67.1722,8.6766 67.0232,8.6766 C66.6432,8.6766 66.4922,8.5966 66.0432,8.4456 L66.1932,7.7756 C66.3432,7.8466 66.4922,7.8466 66.5722,7.8466 C66.8722,7.9266 67.1722,7.9266 67.4722,7.9266 C68.5912,7.9266 69.2712,7.5456 69.2712,6.9456 C69.2712,6.6466 69.1912,6.4256 68.9712,6.2756 C68.7402,6.1256 68.5912,5.9756 67.9912,5.7456 C67.2422,5.3756 67.0232,5.2256 66.7232,4.9956 C66.4232,4.7756 66.1932,4.3956 66.1932,3.9446 C66.1932,2.9746 67.0922,2.2946 68.5212,2.2946 C68.6712,2.2946 68.8912,2.2946 69.0402,2.3746 C69.4202,2.3746 69.5702,2.3746 69.9402,2.5246 L69.7902,3.1946 C69.2712,3.1246 68.8912,3.0446 68.5212,3.0446 C67.6912,3.0446 67.1722,3.3446 67.1722,3.8756 C67.1722,4.1746 67.3922,4.3956 68.1422,4.7756 L68.5912,4.9956 C69.2712,5.2956 69.5702,5.4446 69.7902,5.7456 C70.0902,5.9756 70.2392,6.4256 70.2392,6.7956 C70.2392,7.3966 69.9402,7.9266 69.4202,8.2966"
                                            id="Fill-57"></path>
                                        <path
                                            d="M6.9144,20.2995 C6.4654,20.3795 5.9354,20.4495 5.5654,20.4495 C2.7884,20.4495 0.9894,18.6495 0.9894,16.0285 C0.9894,13.3275 3.0184,11.3765 5.8654,11.3765 C6.6854,11.3765 7.2844,11.5275 8.2634,11.8975 L7.9634,12.6475 C7.7334,12.5765 7.5834,12.4975 7.5144,12.4975 C6.9844,12.3475 6.4654,12.2775 5.8654,12.2775 C3.5374,12.2775 2.0384,13.7785 2.0384,15.9475 C2.0384,18.1285 3.4674,19.6295 5.6354,19.6295 C6.1654,19.6295 6.8344,19.4795 7.3634,19.3285 L7.3634,16.0985 L8.4134,16.0985 L8.4134,19.7785 C7.6634,20.0795 7.3634,20.1495 6.9144,20.2995"
                                            id="Fill-59"></path>
                                        <path
                                            d="M12.4593,14.7477 C11.6303,14.7477 10.9613,15.4287 10.8113,16.4777 L13.9583,16.3977 C13.8783,15.3487 13.3583,14.7477 12.4593,14.7477 Z M14.3283,19.6987 C13.5783,20.1487 12.9793,20.3797 12.3103,20.3797 C10.7303,20.3797 9.6823,19.1797 9.6823,17.2987 C9.6823,15.3487 10.9613,13.9977 12.6093,13.9977 C14.0283,13.9977 14.8573,15.0477 14.8573,16.8487 L14.8573,17.1477 L10.7303,17.1477 L10.7303,17.2987 C10.7303,18.7287 11.3303,19.5497 12.4593,19.5497 C12.8293,19.5497 13.2783,19.3987 13.6583,19.2487 C13.9583,19.0997 14.0283,19.0287 14.5583,18.6487 L15.0073,19.2487 C14.7073,19.4787 14.6273,19.5497 14.3273,19.6987 L14.3283,19.6987 Z"
                                            id="Fill-61"></path>
                                        <path
                                            d="M20.3226,20.2292 L20.3226,16.5482 L20.3226,15.7982 C20.3226,15.1272 19.9536,14.8282 19.4236,14.8282 C18.7546,14.8282 18.0056,15.1982 17.2556,16.0282 L17.2556,20.2292 L16.3556,20.2292 L16.3556,14.1482 L17.2556,14.1482 L17.2556,15.0472 C17.5546,14.8282 17.7056,14.7482 17.8546,14.5982 C18.4546,14.2282 18.9736,13.9982 19.5736,13.9982 C20.1026,13.9982 20.5526,14.1482 20.8516,14.5282 C21.1516,14.8982 21.2216,15.2782 21.2216,16.2492 L21.2216,20.2292 L20.3226,20.2292 Z"
                                            id="Fill-63"></path>
                                        <path
                                            d="M26.098,13.4772 L24.079,12.1972 L24.749,11.3762 L26.627,12.8772 L26.098,13.4772 Z M25.498,14.7482 C24.599,14.7482 23.93,15.4282 23.78,16.4782 L26.927,16.3982 C26.927,15.3482 26.327,14.7482 25.498,14.7482 Z M27.297,19.6992 C26.547,20.1492 25.948,20.3792 25.279,20.3792 C23.7,20.3792 22.731,19.1792 22.731,17.2982 C22.731,15.3482 23.93,13.9982 25.578,13.9982 C27.077,13.9982 27.896,15.0472 27.896,16.8482 L27.896,17.1482 L23.7,17.1482 L23.7,17.2982 C23.7,18.7292 24.379,19.5492 25.428,19.5492 C25.798,19.5492 26.247,19.3992 26.627,19.2482 C26.927,19.0992 27.077,19.0292 27.527,18.6492 L27.976,19.2482 C27.746,19.4792 27.597,19.5492 27.297,19.6992 Z"
                                            id="Fill-65"></path>
                                    </g>
                                    <polygon id="Fill-68" fill="#474747"
                                             points="121.7933 35.139 121.7933 35.139 120.9743 35.139 118.4953 29.058 119.5453 29.058 121.4933 33.939 123.4413 29.058 124.4203 29.058"></polygon>
                                    <path
                                        d="M127.7874,29.6575 C126.9684,29.6575 126.2894,30.3385 126.1394,31.3875 L129.2864,31.3075 C129.2164,30.2585 128.6864,29.6575 127.7874,29.6575 M129.6664,34.6085 C128.9164,35.0585 128.3174,35.2895 127.6384,35.2895 C126.0694,35.2895 125.0194,34.0895 125.0194,32.2085 C125.0194,30.2585 126.2194,28.9075 127.8674,28.9075 C129.3664,28.9075 130.1854,29.9575 130.1854,31.7585 L130.1854,32.0575 L126.0694,32.0575 L126.0694,32.2085 C126.0694,33.6385 126.6684,34.4595 127.7874,34.4595 C128.1674,34.4595 128.6174,34.3085 128.9864,34.1585 C129.2164,34.0095 129.3664,33.9385 129.8864,33.5585 L130.3354,34.1585 C130.0354,34.3885 129.9664,34.4595 129.6664,34.6085"
                                        id="Fill-69" fill="#474747"></path>
                                </g>
                            </g>
                        </g>
                    </g>
                </g>
            </g>
        </g>
    </g>
</svg>
